<?xml version="1.0" encoding="UTF-8"?>
<svg version="1.1" xmlns="http://www.w3.org/2000/svg" width="512" height="512">
<path d="M0 0 C0.7714888 -0.0033284 1.5429776 -0.0066568 2.33784485 -0.01008606 C3.9743287 -0.01514027 5.61082281 -0.01749485 7.24731445 -0.01733398 C9.68524616 -0.01948447 12.12269733 -0.03755426 14.56054688 -0.05664062 C29.28350297 -0.11098886 43.81826104 1.00497951 58.17578125 4.41796875 C59.55950928 4.74220825 59.55950928 4.74220825 60.97119141 5.07299805 C80.38436241 9.79744232 99.87842698 17.74477635 114.05078125 32.16796875 C117.06766762 30.81169308 119.17017102 29.26188689 121.55078125 26.98046875 C147.50942562 4.05349087 187.01613188 -0.03941407 220.05078125 -0.20703125 C220.89073639 -0.21497711 221.73069153 -0.22292297 222.59609985 -0.23110962 C225.01888252 -0.24874225 227.44048949 -0.24360903 229.86328125 -0.23046875 C230.94641853 -0.23935875 230.94641853 -0.23935875 232.05143738 -0.24842834 C237.16110975 -0.1791656 240.60341898 0.81662635 245.05078125 3.16796875 C248.22673394 7.61301409 248.4385625 11.74321865 248.23828125 17.04296875 C248.22474609 17.73132813 248.21121094 18.4196875 248.19726562 19.12890625 C248.16226495 20.80893876 248.10847079 22.48856225 248.05078125 24.16796875 C248.63045654 24.14702148 249.21013184 24.12607422 249.80737305 24.10449219 C252.45083049 24.02100068 255.09401005 23.96920722 257.73828125 23.91796875 C258.65029297 23.88445312 259.56230469 23.8509375 260.50195312 23.81640625 C264.82686203 23.75349848 267.34570636 23.74974943 271.1328125 25.99609375 C274.48815426 29.79562536 274.17980892 33.21100002 274.19122314 38.09407043 C274.19567983 39.15737242 274.19567983 39.15737242 274.20022655 40.24215525 C274.20891558 42.62344416 274.21042196 45.00468281 274.21191406 47.38598633 C274.21654209 49.09095874 274.22156673 50.79593011 274.22695923 52.50090027 C274.24008666 57.13734086 274.24652885 61.77376697 274.25096989 66.41022325 C274.25390004 69.30636366 274.25800474 72.20250011 274.26247406 75.09863853 C274.27614986 84.1584661 274.28581613 93.2182846 274.28967595 102.27812177 C274.29415714 112.73921238 274.31170752 123.20017235 274.34067655 133.66122323 C274.36228697 141.74538975 274.37237989 149.82951949 274.37371707 157.91371459 C274.37476555 162.74292532 274.38068253 167.57201327 274.39853668 172.40119362 C274.41500631 176.94431164 274.41717827 181.48721442 274.40839767 186.03035164 C274.40762671 187.69683661 274.4119779 189.3633331 274.42185593 191.02978897 C274.43456197 193.30708769 274.42870645 195.58362256 274.41827393 197.86091614 C274.41974049 199.13462476 274.42120705 200.40833338 274.42271805 201.72063923 C274.011296 205.5339413 273.07374417 207.92508033 271.05078125 211.16796875 C266.41424684 214.25899169 261.6939137 213.57650079 256.23828125 213.60546875 C255.15740234 213.63833984 254.07652344 213.67121094 252.96289062 213.70507812 C244.04138847 213.76532154 244.04138847 213.76532154 240.4140625 210.953125 C238.05078125 208.16796875 238.05078125 208.16796875 236.05078125 203.16796875 C244.63078125 202.83796875 253.21078125 202.50796875 262.05078125 202.16796875 C263.47745681 199.31461764 263.17676749 196.8991858 263.17776489 193.70811462 C263.18010488 192.70205582 263.18010488 192.70205582 263.18249214 191.67567259 C263.18649562 189.41779289 263.18331502 187.15997987 263.18017578 184.90209961 C263.1815301 183.28768372 263.1833102 181.67326814 263.18548584 180.05885315 C263.19005619 175.66647487 263.18827234 171.27411999 263.18510675 166.88174129 C263.18258154 162.29376457 263.1849211 157.7057899 263.18649292 153.11781311 C263.18831396 145.41309243 263.18590983 137.70838133 263.18115234 130.00366211 C263.17570792 121.08317579 263.17747395 112.16271231 263.18297875 103.24222654 C263.18750945 95.59552277 263.1881607 87.9488259 263.18554008 80.30212122 C263.18397732 75.72964355 263.18378356 71.15717663 263.18707657 66.58469963 C263.18995472 62.28789761 263.18798063 57.9911252 263.18218231 53.6943264 C263.18085449 52.11282653 263.18124919 50.53132419 263.18344498 48.94982529 C263.1861556 46.80012906 263.1827765 44.65052923 263.17776489 42.50083923 C263.17738787 41.29496627 263.17701084 40.0890933 263.17662239 38.84667873 C263.35575773 36.24856332 263.35575773 36.24856332 262.05078125 35.16796875 C259.70090863 34.93269102 257.34522086 34.75410458 254.98828125 34.60546875 C253.69792969 34.52167969 252.40757812 34.43789062 251.078125 34.3515625 C249.57958984 34.26068359 249.57958984 34.26068359 248.05078125 34.16796875 C248.05446842 34.9003435 248.05815559 35.63271826 248.0619545 36.38728619 C248.1502845 54.20600199 248.21648059 72.02467411 248.25802994 89.84356213 C248.27865688 98.46064808 248.30677992 107.07758791 248.35253906 115.69458008 C248.39240289 123.20499227 248.41821311 130.71529864 248.42713523 138.22581369 C248.43235079 142.20277621 248.44461168 146.17943599 248.47370148 150.1563015 C248.50086361 153.89998834 248.50922478 157.6432479 248.50321198 161.38702393 C248.50483608 163.41503855 248.52635471 165.44300671 248.54846191 167.47090149 C248.54296326 168.68099884 248.5374646 169.89109619 248.53179932 171.13786316 C248.53548649 172.18778537 248.53917366 173.23770758 248.54297256 174.31944561 C247.92441604 177.89929865 246.53932786 179.57170218 244.05078125 182.16796875 C241.68537763 183.35067056 240.19970756 183.31715206 237.56030273 183.35742188 C236.16260902 183.38249817 236.16260902 183.38249817 234.73667908 183.40808105 C233.72529373 183.42165649 232.71390839 183.43523193 231.671875 183.44921875 C230.6306398 183.46762817 229.5894046 183.4860376 228.51661682 183.50500488 C225.17389698 183.56387467 221.83112385 183.61657366 218.48828125 183.66796875 C215.1704382 183.71955018 211.85265948 183.77262879 208.53492737 183.83093262 C206.46918741 183.86722225 204.40337643 183.89973309 202.33750916 183.92785645 C194.84893811 184.05910242 187.50680497 184.58549671 180.1484375 186.03515625 C179.32601562 186.19685303 178.50359375 186.3585498 177.65625 186.52514648 C176.81707031 186.69602783 175.97789062 186.86690918 175.11328125 187.04296875 C173.79070312 187.31185913 173.79070312 187.31185913 172.44140625 187.58618164 C160.40793783 190.08089792 149.12742755 193.73189012 138.35375977 199.76025391 C137.54689224 200.21099274 136.74002472 200.66173157 135.90870667 201.12612915 C135.29559128 201.46993622 134.68247589 201.81374329 134.05078125 202.16796875 C135.31293457 202.17010628 135.31293457 202.17010628 136.60058594 202.17228699 C144.60145429 202.190252 152.60177935 202.23225962 160.60238647 202.30005932 C164.71383699 202.33408573 168.82492557 202.3594008 172.93652344 202.36352539 C176.9180401 202.36786144 180.89874367 202.39675298 184.88000488 202.44140053 C186.38508331 202.45420869 187.89025991 202.4587438 189.39538574 202.45412254 C207.67075795 202.41115391 222.54644186 207.34475849 236.30078125 219.79296875 C259.03505297 244.0805137 271.62753086 297.80213779 271.05078125 330.16796875 C270.13040883 343.76364549 265.13807234 354.95140474 255.05078125 364.16796875 C245.79444474 371.48945231 236.53504002 375.00555527 224.6875 373.8359375 C206.57359092 370.71284973 189.7358256 355.95508457 178.05078125 342.16796875 C178.05078125 341.50796875 178.05078125 340.84796875 178.05078125 340.16796875 C177.39078125 340.16796875 176.73078125 340.16796875 176.05078125 340.16796875 C174.90234375 338.77734375 174.90234375 338.77734375 173.67578125 336.91796875 C171.68472834 334.01605292 169.62999464 331.58078127 167.05078125 329.16796875 C166.45265625 328.50796875 165.85453125 327.84796875 165.23828125 327.16796875 C159.83345007 322.22640881 155.19768197 320.56882029 147.94750977 320.65039062 C147.16929871 320.64338135 146.39108765 320.63637207 145.58929443 320.62915039 C143.0357211 320.61165186 140.48327066 320.62316461 137.9296875 320.63671875 C136.14281503 320.63402121 134.355944 320.6301366 132.56907654 320.62512207 C128.8309832 320.61923783 125.09327323 320.62775414 121.35522461 320.64648438 C116.57930961 320.66925684 111.80429472 320.65615504 107.02841282 320.63219452 C103.34019779 320.61769322 99.65219372 320.62236259 95.96397209 320.63270569 C94.20382517 320.63536188 92.44365869 320.63214243 90.68353462 320.62278748 C88.21632802 320.61255182 85.75054843 320.62821959 83.28344727 320.65039062 C82.20697182 320.63824524 82.20697182 320.63824524 81.10874939 320.62585449 C74.51901088 320.73477097 69.40388407 323.07392312 64.49609375 327.44140625 C63.68914062 328.34117187 62.8821875 329.2409375 62.05078125 330.16796875 C60.9250069 331.37020564 59.79723826 332.57057679 58.66796875 333.76953125 C57.42039677 335.11051323 56.17300808 336.45166575 54.92578125 337.79296875 C38.76758182 355.08806527 38.76758182 355.08806527 31.05078125 361.16796875 C30.39078125 361.82796875 29.73078125 362.48796875 29.05078125 363.16796875 C28.20515625 363.49796875 27.35953125 363.82796875 26.48828125 364.16796875 C23.90236684 364.91666989 23.90236684 364.91666989 23.05078125 367.16796875 C21.05078125 367.83463542 19.05078125 368.50130208 17.05078125 369.16796875 C16.72078125 369.82796875 16.39078125 370.48796875 16.05078125 371.16796875 C4.25295834 375.28304938 -5.11391397 374.40339909 -16.94921875 371.16796875 C-17.60921875 370.83796875 -18.26921875 370.50796875 -18.94921875 370.16796875 C-18.94921875 369.50796875 -18.94921875 368.84796875 -18.94921875 368.16796875 C-19.97015625 367.85859375 -19.97015625 367.85859375 -21.01171875 367.54296875 C-26.20271775 365.11313943 -30.11621716 362.12371162 -32.38671875 356.79296875 C-32.57234375 355.92671875 -32.75796875 355.06046875 -32.94921875 354.16796875 C-33.60921875 354.16796875 -34.26921875 354.16796875 -34.94921875 354.16796875 C-35.57880049 352.6490264 -36.20262339 351.1276968 -36.82421875 349.60546875 C-37.34628906 348.33509766 -37.34628906 348.33509766 -37.87890625 347.0390625 C-44.81955307 328.42090407 -39.92178425 307.74763209 -34.94921875 289.16796875 C-34.21122871 286.11760993 -33.48087471 283.06564609 -32.7578125 280.01171875 C-31.93073878 277.1029764 -30.87734287 274.32346422 -29.79467773 271.50195312 C-28.83461244 268.85158517 -28.0056945 266.1779989 -27.1875 263.48046875 C-22.03080565 246.50623823 -16.69392249 229.85963323 -3.84814453 217.05712891 C-3.30586212 216.51625641 -2.76357971 215.97538391 -2.2048645 215.41812134 C-1.58331985 214.79929581 -1.58331985 214.79929581 -0.94921875 214.16796875 C-2.01881836 214.17844238 -3.08841797 214.18891602 -4.19042969 214.19970703 C-8.16370285 214.23594281 -12.13696144 214.25888225 -16.11035156 214.27783203 C-17.82912656 214.28788145 -19.5478845 214.3015232 -21.26660156 214.31884766 C-23.73897516 214.34314266 -26.21112244 214.35446243 -28.68359375 214.36328125 C-29.45040466 214.37360382 -30.21721558 214.38392639 -31.00726318 214.39456177 C-34.80878642 214.39535887 -37.72786393 214.31306447 -40.94921875 212.16796875 C-40.94921875 211.50796875 -40.94921875 210.84796875 -40.94921875 210.16796875 C-41.60921875 210.16796875 -42.26921875 210.16796875 -42.94921875 210.16796875 C-44.75797866 200.52228001 -45.23227633 191.12713345 -45.19213867 181.34692383 C-45.19321446 179.80460022 -45.19515752 178.26227701 -45.19789124 176.71995544 C-45.20269423 172.57138498 -45.19514197 168.42292387 -45.18493819 164.27436662 C-45.17608412 159.91221656 -45.17791654 155.5500692 -45.17829895 151.18791199 C-45.17736572 143.86915278 -45.16872681 136.55043532 -45.1550293 129.23168945 C-45.13928984 120.79114129 -45.13403203 112.3506387 -45.13476485 103.91007692 C-45.13544212 94.88833352 -45.1284933 85.8666075 -45.11931825 76.84486938 C-45.11719533 74.25953781 -45.11647823 71.67420908 -45.11607933 69.08887672 C-45.11506909 65.01678765 -45.10891725 60.94473628 -45.09891319 56.87265968 C-45.09601226 55.38523591 -45.09475789 53.8978078 -45.09534073 52.41038132 C-45.10063756 30.64916285 -45.10063756 30.64916285 -41.53515625 26.0625 C-37.26441398 23.15875264 -32.54067448 23.62521224 -27.57421875 23.85546875 C-26.18396484 23.88930664 -26.18396484 23.88930664 -24.765625 23.92382812 C-22.4917954 23.98243198 -20.22136989 24.06439945 -17.94921875 24.16796875 C-18.00722656 23.01039062 -18.06523438 21.8528125 -18.125 20.66015625 C-18.1719214 19.12113427 -18.21741901 17.58206842 -18.26171875 16.04296875 C-18.30361328 15.28242187 -18.34550781 14.521875 -18.38867188 13.73828125 C-18.47592405 9.68978051 -18.24766203 6.95692324 -15.7421875 3.67578125 C-11.07836776 -0.51187228 -6.03206978 0.00923261 0 0 Z M-6.94921875 11.16796875 C-8.34883908 13.9672094 -8.07518594 16.26731491 -8.07620239 19.40003967 C-8.07776238 20.04624423 -8.07932237 20.69244879 -8.08092964 21.3582353 C-8.08493248 23.53319864 -8.08175277 25.70809273 -8.07861328 27.88305664 C-8.07996763 29.43836 -8.08174775 30.99366303 -8.08392334 32.54896545 C-8.08849335 36.78019214 -8.08670998 41.01139453 -8.08354425 45.24262166 C-8.08101888 49.6624351 -8.08335865 54.08224642 -8.08493042 58.50205994 C-8.0867514 65.92431005 -8.08434747 73.34655022 -8.07958984 80.76879883 C-8.07414536 89.362096 -8.07591152 97.95536946 -8.08141625 106.54866606 C-8.08594701 113.91511745 -8.08659817 121.28156168 -8.08397758 128.64801401 C-8.08241486 133.05281777 -8.08222094 137.45761036 -8.08551407 141.86241341 C-8.08839232 146.00162688 -8.08641795 150.14080962 -8.08061981 154.28001976 C-8.07929205 155.80346755 -8.0796866 157.3269179 -8.08188248 158.85036469 C-8.08459332 160.92123912 -8.08121373 162.99201351 -8.07620239 165.06288147 C-8.07582537 166.22450837 -8.07544834 167.38613527 -8.07505989 168.58296299 C-8.24276468 171.09838559 -8.24276468 171.09838559 -6.94921875 172.16796875 C-4.6028679 172.30404179 -2.28211899 172.37908367 0.06640625 172.4140625 C1.54964932 172.44520638 3.03288477 172.47671521 4.51611328 172.50854492 C5.29714417 172.52388275 6.07817505 172.53922058 6.88287354 172.55502319 C41.45717109 173.27635746 75.53594457 176.51988644 105.05078125 196.16796875 C106.71439186 197.17304463 108.38062158 198.1738136 110.05078125 199.16796875 C110.1208696 179.19251062 110.17376858 159.21707744 110.20621777 139.24152184 C110.22168511 129.96647404 110.2427721 120.69150266 110.27709961 111.41650391 C110.30700601 103.33219369 110.32635722 95.24793881 110.33304673 87.16357481 C110.33695689 82.88315392 110.34614353 78.60289135 110.36797142 74.32252121 C110.38835619 70.29243429 110.39461104 66.26257071 110.39010429 62.23243713 C110.39092861 60.75461742 110.3968825 59.27679012 110.40839767 57.79901505 C110.42337114 55.77804236 110.41793628 53.75694945 110.4115448 51.7359314 C110.41431018 50.6058132 110.41707556 49.475695 110.41992474 48.3113308 C109.61671082 41.47173527 105.91470183 37.48582716 100.8515625 33.23828125 C85.31988539 21.75740416 65.10905922 15.2216625 46.05078125 13.16796875 C44.27748481 12.82634841 42.50657004 12.47212863 40.73828125 12.10546875 C25.63288033 9.31305839 8.18914709 8.64490778 -6.94921875 11.16796875 Z M124.78515625 37.015625 C118.92887031 44.28322309 119.64000338 52.08119478 119.71020508 61.00756836 C119.71105211 62.51597069 119.71057472 64.02437426 119.70887756 65.53277588 C119.70801916 69.61291905 119.72561964 73.69279598 119.74659944 77.77287745 C119.76539219 82.0423018 119.76711872 86.31173269 119.77067566 90.58119202 C119.7799885 98.6593997 119.80459195 106.73748515 119.83472413 114.81563908 C119.86829185 124.01512544 119.88476011 133.21461773 119.89981043 142.41415012 C119.93114221 161.33215889 119.98388787 180.25005398 120.05078125 199.16796875 C121.17144989 198.44929123 121.17144989 198.44929123 122.3147583 197.71609497 C123.29917908 197.0867807 124.28359985 196.45746643 125.29785156 195.80908203 C126.7588327 194.87384201 126.7588327 194.87384201 128.24932861 193.91970825 C152.55206965 178.7232809 181.39630442 173.00925106 209.76953125 173.15625 C210.53599472 173.15996613 211.30245819 173.16368225 212.09214783 173.16751099 C215.96684475 173.19255358 219.83929897 173.24373063 223.71313477 173.32910156 C225.14990105 173.34969997 226.58666858 173.37021163 228.0234375 173.390625 C229.30484619 173.41906494 230.58625488 173.44750488 231.90649414 173.47680664 C234.94826774 173.42889592 234.94826774 173.42889592 236.7243309 172.04289341 C238.6613076 169.30499569 238.42251679 167.19433767 238.41827393 163.8603363 C238.42154277 163.21806644 238.42481161 162.57579658 238.4281795 161.91406399 C238.43547273 159.75814415 238.42129204 157.60290001 238.40722656 155.44702148 C238.40801726 153.90304448 238.41011396 152.35906766 238.41342163 150.81509399 C238.41856192 146.61889552 238.40500826 142.42294168 238.38789463 138.22678256 C238.3728777 133.84081534 238.37403312 129.45485154 238.37322998 125.06886292 C238.36953581 117.70382501 238.35456026 110.33888021 238.33203125 102.97387695 C238.30314685 93.51176249 238.29280731 84.049723 238.28834915 74.58756924 C238.28437278 66.46296494 238.27187082 58.33837704 238.25800228 50.21378446 C238.25389913 47.597021 238.25097563 44.98025814 238.24820709 42.36349297 C238.24332149 38.25708277 238.2331306 34.15071825 238.21876907 30.0443306 C238.21423831 28.53420614 238.21140558 27.02407552 238.21036148 25.51394463 C238.20862137 23.45882644 238.20011703 21.40371723 238.19122314 19.34861755 C238.18676115 17.62056963 238.18676115 17.62056963 238.18220901 15.85761166 C238.23330561 13.19716157 238.23330561 13.19716157 237.05078125 11.16796875 C199.90448254 8.99677467 154.31513123 10.86213941 124.78515625 37.015625 Z M-33.94921875 35.16796875 C-34.04615575 37.31956601 -34.07108658 39.47440986 -34.06947327 41.62818909 C-34.07032769 42.31099676 -34.07118212 42.99380443 -34.07206243 43.69730324 C-34.07371918 46.00208566 -34.06819272 48.30679647 -34.06274414 50.61157227 C-34.06246228 52.25701903 -34.06261997 53.90246591 -34.06318665 55.5479126 C-34.06347468 60.02912634 -34.05757696 64.51031356 -34.05061269 68.99152112 C-34.04438017 73.6693898 -34.04377543 78.34725903 -34.04258728 83.02513123 C-34.03947366 91.88972043 -34.03125986 100.75429737 -34.02123779 109.61888117 C-34.0100776 119.70819077 -34.00456644 129.79750095 -33.99954236 139.88681519 C-33.98907727 160.64720657 -33.97147724 181.40758689 -33.94921875 202.16796875 C-31.4102216 203.43746732 -29.65438454 203.29098347 -26.81137085 203.28822327 C-25.17910805 203.29028526 -25.17910805 203.29028526 -23.51387024 203.29238892 C-21.71528816 203.286996 -21.71528816 203.286996 -19.88037109 203.28149414 C-18.62186844 203.28164017 -17.36336578 203.28178619 -16.06672668 203.28193665 C-12.61032959 203.28222423 -9.15396701 203.27633383 -5.69757795 203.26936269 C-2.08741905 203.26312262 1.52274059 203.26252483 5.13290405 203.26133728 C11.97166839 203.2582259 18.81041679 203.25001509 25.64917409 203.23998779 C33.43383436 203.22882068 41.21849539 203.22331469 49.00316167 203.21829236 C65.0190442 203.20783233 81.03491069 203.1902366 97.05078125 203.16796875 C89.08768512 196.63930239 79.71952589 193.2712912 70.05078125 190.04296875 C68.89835937 189.64658203 68.89835937 189.64658203 67.72265625 189.2421875 C66.9646875 188.98824219 66.20671875 188.73429688 65.42578125 188.47265625 C64.75289063 188.24562012 64.08 188.01858398 63.38671875 187.78466797 C60.30550814 186.97121291 57.20620885 186.60834851 54.05078125 186.16796875 C52.89819824 185.92498047 51.74561523 185.68199219 50.55810547 185.43164062 C36.34148596 182.47913947 22.17189734 182.70355489 7.70556641 182.65673828 C4.36469877 182.64112454 1.0243166 182.60820237 -2.31640625 182.57421875 C-3.85371902 182.57875061 -3.85371902 182.57875061 -5.42208862 182.58337402 C-6.36802887 182.57326294 -7.31396912 182.56315186 -8.28857422 182.55273438 C-9.11888153 182.55067993 -9.94918884 182.54862549 -10.80465698 182.54650879 C-13.45051026 182.07948498 -14.29989478 181.24511521 -15.94921875 179.16796875 C-17.95673482 175.15293662 -17.36319314 170.10663928 -17.5078125 165.69140625 C-17.55006454 164.40221283 -17.59231659 163.11301941 -17.635849 161.78475952 C-18.31142704 138.77662086 -18.05785935 115.74056441 -18.0178833 92.7255249 C-18.00750891 86.10738418 -18.00305594 79.48924032 -17.99804688 72.87109375 C-17.98743883 59.97004211 -17.97065683 47.06900672 -17.94921875 34.16796875 C-20.42845676 34.1411178 -22.90740715 34.12120328 -25.38671875 34.10546875 C-26.09376953 34.09708984 -26.80082031 34.08871094 -27.52929688 34.08007812 C-31.02925504 33.7349957 -31.02925504 33.7349957 -33.94921875 35.16796875 Z M-0.25268555 227.11376953 C-5.99676901 234.06883044 -9.38917442 242.10097609 -12.32421875 250.54296875 C-12.70288086 251.61659668 -13.08154297 252.69022461 -13.47167969 253.79638672 C-30.78033835 299.62929565 -30.78033835 299.62929565 -26.8828125 346.65234375 C-23.02476406 354.2411123 -17.43347119 359.26868923 -9.53125 362.47265625 C1.04575152 365.32092595 9.89142336 362.66489452 19.078125 357.44921875 C24.80592942 354.37773506 24.80592942 354.37773506 28.05078125 349.16796875 C29.3657966 348.4658599 30.70303649 347.80499802 32.05078125 347.16796875 C37.26486033 343.02655352 42.09195839 338.53153521 46.05078125 333.16796875 C46.05078125 332.50796875 46.05078125 331.84796875 46.05078125 331.16796875 C46.64246094 330.9153125 47.23414063 330.66265625 47.84375 330.40234375 C50.31091186 329.02247977 51.58789954 327.60435768 53.36328125 325.41796875 C60.94295498 316.53478425 68.28590307 311.60264404 80.05078125 310.16796875 C82.36751642 310.07651538 84.68635544 310.03021344 87.00488281 310.02270508 C87.66123215 310.01934647 88.31758148 310.01598785 88.99382019 310.01252747 C91.14303532 310.00310391 93.2921718 310.00107857 95.44140625 310 C96.95204702 309.99678093 98.46268749 309.99341638 99.97332764 309.98991394 C103.13375571 309.98394375 106.29415653 309.98207181 109.45458984 309.98266602 C113.47665726 309.9827674 117.49854719 309.96913064 121.52057266 309.95189381 C124.64010397 309.94069745 127.75959343 309.93874915 130.87914276 309.93927574 C132.36049764 309.93810651 133.84185399 309.93374512 135.32318878 309.92594337 C148.51194879 309.86299393 161.39205287 309.879824 171.47265625 319.47265625 C174.15698798 322.27900305 176.8084754 325.11175709 179.42578125 327.98046875 C180.14858276 328.7698584 180.14858276 328.7698584 180.88598633 329.57519531 C183.54544619 332.48808553 186.16386215 335.42927531 188.73828125 338.41796875 C198.60287088 349.7051115 210.75610966 361.39175168 226.11328125 364.10546875 C236.37906154 364.26841764 243.49467605 361.28485615 251.02734375 354.34765625 C258.98830249 345.98018047 261.11315166 336.49443512 261.05078125 325.16796875 C260.08708364 295.52595945 249.37363792 248.60762794 228.7890625 226.74609375 C224.88704834 223.20359101 221.01105386 220.42302713 216.30078125 218.04296875 C215.3365625 217.54539062 214.37234375 217.0478125 213.37890625 216.53515625 C204.64262346 212.94630769 196.27884322 212.88512479 186.9609375 212.9375 C185.60770207 212.93869555 184.25446579 212.93914417 182.90122986 212.93888855 C180.07806122 212.94044384 177.25502108 212.94865785 174.43188477 212.9621582 C170.84027941 212.97912994 167.24881488 212.98297228 163.65717411 212.98221302 C160.86623325 212.98248696 158.07532224 212.98800399 155.2843914 212.99521446 C153.32485692 212.99987764 151.36531626 213.00166368 149.40577698 213.00337219 C143.15162486 213.03630753 137.04126744 213.24266682 130.83592224 214.05278015 C130.24682571 214.09079239 129.65772919 214.12880463 129.05078125 214.16796875 C128.72078125 213.83796875 128.39078125 213.50796875 128.05078125 213.16796875 C124.97877325 213.05659686 121.92904604 213.01056164 118.85620117 213.00683594 C117.89022003 213.00187103 116.92423889 212.99690613 115.9289856 212.99179077 C112.7130666 212.97711442 109.49719708 212.97035467 106.28125 212.96484375 C104.04698179 212.95909252 101.81271361 212.95333478 99.57844543 212.9475708 C94.87984995 212.93704237 90.18127165 212.93121318 85.48266602 212.92773438 C79.48529009 212.92227523 73.48814415 212.89831051 67.49083996 212.86976242 C62.86747092 212.85105132 58.24415603 212.84592573 53.62075233 212.8443985 C51.41174386 212.84138563 49.20273603 212.83340366 46.99376488 212.82021332 C29.22907359 212.7217938 12.61688875 213.06504046 -0.25268555 227.11376953 Z " fill="#0DDEFD" transform="translate(140.94921875,73.83203125)"/>
<path d="M0 0 C0.33 0 0.66 0 1 0 C1.8647565 14.34113798 2.24433356 28.6567706 2.29516602 43.02368164 C2.30685868 45.32647765 2.3275706 47.62924318 2.35668945 49.93188477 C2.39912639 53.30763612 2.41547895 56.68260988 2.42578125 60.05859375 C2.44328934 61.08560898 2.46079742 62.11262421 2.47883606 63.17076111 C2.4571762 70.24958304 2.4571762 70.24958304 0.09838867 74.12133789 C-2.90809921 76.81301029 -4.55079905 77.12934481 -8.49047852 77.18945312 C-9.42227432 77.20617065 -10.35407013 77.22288818 -11.31410217 77.2401123 C-12.83118019 77.26047546 -12.83118019 77.26047546 -14.37890625 77.28125 C-15.42014145 77.29965942 -16.46137665 77.31806885 -17.53416443 77.33703613 C-20.87688427 77.39590592 -24.2196574 77.44860491 -27.5625 77.5 C-30.88034305 77.55158143 -34.19812177 77.60466004 -37.51585388 77.66296387 C-39.58159384 77.6992535 -41.64740482 77.73176434 -43.71327209 77.7598877 C-51.20184314 77.89113367 -58.54397628 78.41752796 -65.90234375 79.8671875 C-67.13597656 80.10973267 -67.13597656 80.10973267 -68.39453125 80.35717773 C-69.65330078 80.61349976 -69.65330078 80.61349976 -70.9375 80.875 C-72.26007813 81.14389038 -72.26007813 81.14389038 -73.609375 81.41821289 C-85.64284342 83.91292917 -96.9233537 87.56392137 -107.69702148 93.59228516 C-108.50388901 94.04302399 -109.31075653 94.49376282 -110.14207458 94.9581604 C-110.75518997 95.30196747 -111.36830536 95.64577454 -112 96 C-110.73784668 96.00213753 -110.73784668 96.00213753 -109.45019531 96.00431824 C-101.44932696 96.02228325 -93.4490019 96.06429087 -85.44839478 96.13209057 C-81.33694426 96.16611698 -77.22585568 96.19143205 -73.11425781 96.19555664 C-69.13274115 96.19989269 -65.15203758 96.22878423 -61.17077637 96.27343178 C-59.66569794 96.28623994 -58.16052134 96.29077505 -56.65539551 96.28615379 C-38.3800233 96.24318516 -23.50433939 101.17678974 -9.75 113.625 C12.98427172 137.91254495 25.57674961 191.63416904 25 224 C24.07962758 237.59567674 19.08729109 248.78343599 9 258 C-0.25633651 265.32148356 -9.51574123 268.83758652 -21.36328125 267.66796875 C-39.47719033 264.54488098 -56.31495565 249.78711582 -68 236 C-68 235.34 -68 234.68 -68 234 C-68.66 234 -69.32 234 -70 234 C-71.1484375 232.609375 -71.1484375 232.609375 -72.375 230.75 C-74.36605291 227.84808417 -76.42078661 225.41281252 -79 223 C-79.598125 222.34 -80.19625 221.68 -80.8125 221 C-86.21733118 216.05844006 -90.85309928 214.40085154 -98.10327148 214.48242188 C-98.88148254 214.4754126 -99.6596936 214.46840332 -100.46148682 214.46118164 C-103.01506015 214.44368311 -105.56751059 214.45519586 -108.12109375 214.46875 C-109.90796622 214.46605246 -111.69483725 214.46216785 -113.48170471 214.45715332 C-117.21979805 214.45126908 -120.95750802 214.45978539 -124.69555664 214.47851562 C-129.47147164 214.50128809 -134.24648653 214.48818629 -139.02236843 214.46422577 C-142.71058346 214.44972447 -146.39858753 214.45439384 -150.08680916 214.46473694 C-151.84695608 214.46739313 -153.60712256 214.46417368 -155.36724663 214.45481873 C-157.83445323 214.44458307 -160.30023282 214.46025084 -162.76733398 214.48242188 C-163.48498428 214.47432495 -164.20263458 214.46622803 -164.94203186 214.45788574 C-171.53177037 214.56680222 -176.64689718 216.90595437 -181.5546875 221.2734375 C-182.36164063 222.17320312 -183.16859375 223.07296875 -184 224 C-185.12577435 225.20223689 -186.25354299 226.40260804 -187.3828125 227.6015625 C-188.63038448 228.94254448 -189.87777317 230.283697 -191.125 231.625 C-207.28319943 248.92009652 -207.28319943 248.92009652 -215 255 C-215.99 255.99 -215.99 255.99 -217 257 C-217.845625 257.33 -218.69125 257.66 -219.5625 258 C-222.14841441 258.74870114 -222.14841441 258.74870114 -223 261 C-225 261.66666667 -227 262.33333333 -229 263 C-229.33 263.66 -229.66 264.32 -230 265 C-232.5625 265.625 -232.5625 265.625 -235 266 C-235.84149038 262.08742934 -236.08601756 258.88084002 -235 255 C-232.07669395 252.47634716 -228.92704339 250.7625135 -225.53515625 248.97265625 C-221.13622039 246.64101873 -217.74457791 243.43155921 -214.14453125 240.0234375 C-212.39961307 238.3770484 -210.64681395 236.89809576 -208.75 235.4375 C-205.85769669 232.87386752 -203.78675266 230.22095454 -201.58984375 227.0625 C-199.59685572 224.47700201 -197.32669034 222.2887739 -195 220 C-194.17242187 219.1028125 -193.34484375 218.205625 -192.4921875 217.28125 C-183.76812999 208.01031127 -175.553918 203.37714193 -162.61273193 202.86628723 C-161.43567688 202.86247543 -160.25862183 202.85866364 -159.04589844 202.85473633 C-158.06137444 202.84969841 -158.06137444 202.84969841 -157.05696106 202.84455872 C-154.90774593 202.83513516 -152.75860945 202.83310982 -150.609375 202.83203125 C-149.09873423 202.82881218 -147.58809376 202.82544763 -146.07745361 202.82194519 C-142.91702554 202.815975 -139.75662472 202.81410306 -136.59619141 202.81469727 C-132.57412399 202.81479865 -128.55223406 202.80116189 -124.53020859 202.78392506 C-121.41067728 202.7727287 -118.29118782 202.7707804 -115.17163849 202.77130699 C-113.69028361 202.77013776 -112.20892726 202.76577637 -110.72759247 202.75797462 C-95.58634536 202.68570604 -83.79765332 203.86398799 -72 214 C-70.60127228 215.60813417 -69.24880219 217.25731511 -67.9375 218.9375 C-55.41982275 234.51181937 -40.62724285 252.45648923 -20.1875 256.8125 C-11.11799953 257.61789966 -3.91373613 254.74596496 3 249 C9.84234506 242.76721797 12.88587117 235.04430682 13.875 225.9375 C15.19339966 195.00855664 3.23960752 146.30436301 -16.5625 122.3125 C-26.05521314 112.56264791 -38.01109824 107.99760991 -51.55444336 107.75708008 C-54.06623878 107.75068459 -56.57807987 107.75541282 -59.08984375 107.76953125 C-60.44307918 107.7707268 -61.79631546 107.77117542 -63.14955139 107.7709198 C-65.97272003 107.77247509 -68.79576017 107.7806891 -71.61889648 107.79418945 C-75.21050184 107.81116119 -78.80196637 107.81500353 -82.39360714 107.81424427 C-85.184548 107.81451821 -87.97545901 107.82003524 -90.76638985 107.82724571 C-92.72592433 107.83190889 -94.68546499 107.83369493 -96.64500427 107.83540344 C-102.8095036 107.86786665 -108.83227067 108.05246338 -114.94630432 108.87260437 C-118.20721964 109.07488671 -120.94728483 108.0567091 -124 107 C-125.99488234 106.63729412 -127.9937811 106.29359301 -130 106 C-129.152874 100.63486869 -128.08318169 95.3212615 -127 90 C-126.34 90.66 -125.68 91.32 -125 92 C-123.989375 91.175 -122.97875 90.35 -121.9375 89.5 C-89.43087374 65.3619798 -47.58686128 65.59003825 -9 66 C-9.00999275 64.86367378 -9.00999275 64.86367378 -9.02018738 63.70439148 C-9.08027832 56.56801557 -9.12596391 49.4317622 -9.15543652 42.29519939 C-9.17109805 38.62613324 -9.19234475 34.95727599 -9.22631836 31.28833008 C-9.25889514 27.74811053 -9.27684934 24.20809201 -9.28463173 20.66773415 C-9.29287924 18.65852345 -9.31630137 16.64939372 -9.33988953 14.64030457 C-9.34022942 12.80874565 -9.34022942 12.80874565 -9.34057617 10.94018555 C-9.35056892 9.32469063 -9.35056892 9.32469063 -9.36076355 7.67655945 C-9 5 -9 5 -7.64277649 3.1678009 C-5.51063836 1.65212738 -3.55859638 1.4039889 -1 1 C-0.67 0.67 -0.34 0.34 0 0 Z " fill="#F52BFA" transform="translate(387,180)"/>
<path d="M0 0 C0.7940625 -0.01160156 1.588125 -0.02320313 2.40625 -0.03515625 C7.52566811 -0.00955916 11.20775249 0.58275249 15 4.375 C15.23701239 7.23377909 15.42219182 10.07383297 15.5625 12.9375 C15.60568359 13.74380859 15.64886719 14.55011719 15.69335938 15.38085938 C15.79975262 17.37868805 15.90040888 19.3768207 16 21.375 C17.18078125 21.40078125 18.3615625 21.4265625 19.578125 21.453125 C21.13545323 21.50941397 22.69274347 21.56676114 24.25 21.625 C25.41595703 21.64626953 25.41595703 21.64626953 26.60546875 21.66796875 C30.09198386 21.81696512 32.44857384 22.06246809 35.515625 23.80078125 C37.84884023 27.84706765 37.57901979 31.72605986 37.5 36.3125 C37.52320313 37.65344727 37.52320313 37.65344727 37.546875 39.02148438 C37.5216656 43.26611746 37.37957566 45.74371421 35.15625 49.44140625 C31.75322241 52.49303425 28.89804037 52.51182269 24.5 52.5 C23.5409375 52.50257813 22.581875 52.50515625 21.59375 52.5078125 C19 52.375 19 52.375 16 51.375 C16.02320313 52.39980469 16.04640625 53.42460937 16.0703125 54.48046875 C16.08908036 55.84113851 16.10727947 57.2018162 16.125 58.5625 C16.14175781 59.23603516 16.15851563 59.90957031 16.17578125 60.60351562 C16.21538674 64.66307807 15.80020002 67.72498815 14 71.375 C13.34 71.375 12.68 71.375 12 71.375 C11.67 72.035 11.34 72.695 11 73.375 C6.57434803 74.45667947 2.46368278 74.42050704 -2.0625 74.125 C-3.84333984 74.02445313 -3.84333984 74.02445313 -5.66015625 73.921875 C-9.15553867 73.34953168 -11.17198114 72.47136628 -14 70.375 C-15.59412284 67.18675432 -15.10174735 63.74603338 -15.0625 60.25 C-15.05798828 59.49589844 -15.05347656 58.74179687 -15.04882812 57.96484375 C-15.03703499 56.10152873 -15.01909942 54.23825445 -15 52.375 C-15.86882812 52.39820313 -16.73765625 52.42140625 -17.6328125 52.4453125 C-18.78523438 52.46335937 -19.93765625 52.48140625 -21.125 52.5 C-22.26195312 52.52320313 -23.39890625 52.54640625 -24.5703125 52.5703125 C-28.16687428 52.36549691 -30.75400073 51.94625182 -34 50.375 C-36.7186172 46.21433367 -36.40226915 41.19771207 -36.4375 36.375 C-36.48680664 35.18390625 -36.48680664 35.18390625 -36.53710938 33.96875 C-36.57490288 29.8458221 -36.3146031 27.8518012 -33.9921875 24.33203125 C-30.0402275 21.74726368 -27.2896442 21.79517259 -22.6875 22.0625 C-21.94693359 22.08505859 -21.20636719 22.10761719 -20.44335938 22.13085938 C-18.62802643 22.1894185 -16.81374319 22.27909114 -15 22.375 C-15.09539062 21.75753906 -15.19078125 21.14007813 -15.2890625 20.50390625 C-16.03865472 14.77737034 -16.67789623 8.69813518 -14 3.375 C-9.70558288 -0.29763858 -5.36798886 -0.07842841 0 0 Z M-5 10.375 C-5.03738281 11.55578125 -5.07476562 12.7365625 -5.11328125 13.953125 C-5.17895149 15.51044788 -5.24539847 17.06773814 -5.3125 18.625 C-5.33505859 19.40230469 -5.35761719 20.17960937 -5.38085938 20.98046875 C-5.53513925 24.26242246 -5.78526884 26.86638496 -7.0703125 29.91015625 C-10.03011222 32.15696778 -13.01934452 31.76027311 -16.5625 31.5625 C-21.42184259 31.14971977 -21.42184259 31.14971977 -26 32.375 C-26.02689216 33.85406892 -26.04634621 35.33327483 -26.0625 36.8125 C-26.07410156 37.63621094 -26.08570313 38.45992188 -26.09765625 39.30859375 C-26.23267348 41.36663938 -26.23267348 41.36663938 -25 42.375 C-21.63331804 42.57835663 -18.27390068 42.72173179 -14.90234375 42.8046875 C-9.44145976 43.04341467 -9.44145976 43.04341467 -7.29711914 44.65405273 C-5.74598808 46.71200923 -5.58431153 47.83231335 -5.48828125 50.38671875 C-5.43510742 51.52270508 -5.43510742 51.52270508 -5.38085938 52.68164062 C-5.35830078 53.46732422 -5.33574219 54.25300781 -5.3125 55.0625 C-5.26125977 56.25842773 -5.26125977 56.25842773 -5.20898438 57.47851562 C-5.12661896 59.44351904 -5.06162933 61.40923696 -5 63.375 C-1.37 63.375 2.26 63.375 6 63.375 C5.95359375 62.26640625 5.9071875 61.1578125 5.859375 60.015625 C5.82184898 58.55211032 5.78544971 57.08856644 5.75 55.625 C5.71648437 54.89539063 5.68296875 54.16578125 5.6484375 53.4140625 C5.58787192 50.08295563 5.7504077 47.79452749 7.46875 44.90625 C11.15700374 42.67508416 14.50981548 42.70234997 18.75 42.625 C19.54277344 42.59535156 20.33554688 42.56570313 21.15234375 42.53515625 C23.10102094 42.46472213 25.05051495 42.41756518 27 42.375 C27 39.075 27 35.775 27 32.375 C24.92017483 31.0819832 24.92017483 31.0819832 22.0625 31.9375 C16.92621671 32.80805649 12.01935976 31.47326859 7 30.375 C6.11744572 23.6455236 5.91407045 17.16343417 6 10.375 C2.37 10.375 -1.26 10.375 -5 10.375 Z " fill="#66A5FB" transform="translate(181,305.625)"/>
<path d="M0 0 C0.33 0 0.66 0 1 0 C1.8647565 14.34113798 2.24433356 28.6567706 2.29516602 43.02368164 C2.30685868 45.32647765 2.3275706 47.62924318 2.35668945 49.93188477 C2.39912639 53.30763612 2.41547895 56.68260988 2.42578125 60.05859375 C2.44328934 61.08560898 2.46079742 62.11262421 2.47883606 63.17076111 C2.4571762 70.24958304 2.4571762 70.24958304 0.09838867 74.12133789 C-2.90809921 76.81301029 -4.55079905 77.12934481 -8.49047852 77.18945312 C-9.42227432 77.20617065 -10.35407013 77.22288818 -11.31410217 77.2401123 C-12.83118019 77.26047546 -12.83118019 77.26047546 -14.37890625 77.28125 C-15.42014145 77.29965942 -16.46137665 77.31806885 -17.53416443 77.33703613 C-20.87688427 77.39590592 -24.2196574 77.44860491 -27.5625 77.5 C-30.88034305 77.55158143 -34.19812177 77.60466004 -37.51585388 77.66296387 C-39.58159384 77.6992535 -41.64740482 77.73176434 -43.71327209 77.7598877 C-51.20184314 77.89113367 -58.54397628 78.41752796 -65.90234375 79.8671875 C-66.72476563 80.02888428 -67.5471875 80.19058105 -68.39453125 80.35717773 C-69.65330078 80.61349976 -69.65330078 80.61349976 -70.9375 80.875 C-71.81921875 81.05426025 -72.7009375 81.23352051 -73.609375 81.41821289 C-87.32350325 84.26135485 -99.91256287 88.82689968 -112 96 C-111.814375 96.763125 -111.62875 97.52625 -111.4375 98.3125 C-111 101 -111 101 -112 104 C-108.5980513 106.09350689 -105.94727588 106.17942163 -102 106 C-102 106.66 -102 107.32 -102 108 C-104.35359502 108.22415191 -106.70648411 108.42959058 -109.0625 108.625 C-110.37347656 108.74101562 -111.68445313 108.85703125 -113.03515625 108.9765625 C-117.12203678 109.0007214 -120.14048591 108.27401436 -124 107 C-125.99488234 106.63729412 -127.9937811 106.29359301 -130 106 C-129.152874 100.63486869 -128.08318169 95.3212615 -127 90 C-126.34 90.66 -125.68 91.32 -125 92 C-123.989375 91.175 -122.97875 90.35 -121.9375 89.5 C-89.43087374 65.3619798 -47.58686128 65.59003825 -9 66 C-9.00999275 64.86367378 -9.00999275 64.86367378 -9.02018738 63.70439148 C-9.08027832 56.56801557 -9.12596391 49.4317622 -9.15543652 42.29519939 C-9.17109805 38.62613324 -9.19234475 34.95727599 -9.22631836 31.28833008 C-9.25889514 27.74811053 -9.27684934 24.20809201 -9.28463173 20.66773415 C-9.29287924 18.65852345 -9.31630137 16.64939372 -9.33988953 14.64030457 C-9.34011612 13.41926529 -9.34034271 12.19822601 -9.34057617 10.94018555 C-9.35056892 9.32469063 -9.35056892 9.32469063 -9.36076355 7.67655945 C-9 5 -9 5 -7.64277649 3.1678009 C-5.51063836 1.65212738 -3.55859638 1.4039889 -1 1 C-0.67 0.67 -0.34 0.34 0 0 Z " fill="#F131FB" transform="translate(387,180)"/>
<path d="M0 0 C0.33 0 0.66 0 1 0 C2.13831754 13.0700491 2.18098102 26.11099423 2.203125 39.22265625 C2.20736607 40.92841733 2.20736607 40.92841733 2.21169281 42.66863823 C2.22657302 48.66670837 2.23587741 54.66475507 2.24023438 60.6628418 C2.24575549 66.84648743 2.26989121 73.02991693 2.29820633 79.2134943 C2.31681344 83.98757063 2.32203691 88.76159413 2.32357025 93.53570366 C2.32659304 95.81665691 2.3346089 98.09760932 2.34775543 100.37852669 C2.36480264 103.55859302 2.36294072 106.73811946 2.35644531 109.91821289 C2.37026749 111.32324821 2.37026749 111.32324821 2.3843689 112.75666809 C2.35139888 117.90750251 1.95070786 121.57915653 -1 126 C-5.63653441 129.09102294 -10.35686755 128.40853204 -15.8125 128.4375 C-16.89337891 128.47037109 -17.97425781 128.50324219 -19.08789062 128.53710938 C-28.00939278 128.59735279 -28.00939278 128.59735279 -31.63671875 125.78515625 C-34 123 -34 123 -36 118 C-27.42 117.67 -18.84 117.34 -10 117 C-8.83911377 114.67822754 -8.88373856 113.37664933 -8.89993286 110.79347229 C-8.90289368 109.91157227 -8.90585449 109.02967224 -8.90890503 108.12104797 C-8.91721344 107.15112411 -8.92552185 106.18120026 -8.93408203 105.18188477 C-8.93875488 104.16228668 -8.94342773 103.1426886 -8.94824219 102.0921936 C-8.95876307 99.87300631 -8.97143167 97.65382841 -8.98596573 95.43466377 C-9.00790784 91.92616236 -9.02203848 88.41771431 -9.03366089 84.90916443 C-9.06733685 74.93179997 -9.10898078 64.95452418 -9.17138672 54.97729492 C-9.20896347 48.88015402 -9.23203603 42.78310474 -9.24569321 36.6858654 C-9.25376741 34.35776147 -9.26740407 32.02967013 -9.28662491 29.70163155 C-9.31300126 26.45014168 -9.32098789 23.19909304 -9.32470703 19.94750977 C-9.3370639 18.97961014 -9.34942078 18.01171051 -9.3621521 17.01448059 C-9.35813385 15.68740082 -9.35813385 15.68740082 -9.35403442 14.33351135 C-9.35809862 13.56456826 -9.36216282 12.79562517 -9.36635017 12.00338078 C-8.89685095 9.43593084 -8.08244532 8.53698267 -6 7 C-5.01 7 -4.02 7 -3 7 C-0.64046906 4.64046906 -0.50858587 3.22104383 0 0 Z " fill="#F52DFC" transform="translate(413,159)"/>
<path d="M0 0 C0.7940625 -0.01160156 1.588125 -0.02320313 2.40625 -0.03515625 C7.52566811 -0.00955916 11.20775249 0.58275249 15 4.375 C15.07205511 6.06108966 15.08386068 7.75000659 15.0625 9.4375 C15.05347656 10.35660156 15.04445312 11.27570313 15.03515625 12.22265625 C15.02355469 12.93292969 15.01195312 13.64320313 15 14.375 C14.360625 14.478125 13.72125 14.58125 13.0625 14.6875 C12.381875 14.914375 11.70125 15.14125 11 15.375 C10.67 16.365 10.34 17.355 10 18.375 C8.68 18.045 7.36 17.715 6 17.375 C5.06576355 14.36468256 4.95550089 13.50849732 6 10.375 C2.37 10.375 -1.26 10.375 -5 10.375 C-4.95359375 11.54417969 -4.9071875 12.71335937 -4.859375 13.91796875 C-4.82184406 15.4661202 -4.78544531 17.01429939 -4.75 18.5625 C-4.69972656 19.71588867 -4.69972656 19.71588867 -4.6484375 20.89257812 C-4.58392488 24.65043843 -4.80627667 26.97518802 -6.46875 30.40625 C-10.16180921 33.27862939 -13.2122044 32.93207439 -17.75 32.6875 C-18.54277344 32.66494141 -19.33554688 32.64238281 -20.15234375 32.61914062 C-22.1023762 32.56040471 -24.05143312 32.47072654 -26 32.375 C-25.67 35.345 -25.34 38.315 -25 41.375 C-23.89140625 41.40078125 -22.7828125 41.4265625 -21.640625 41.453125 C-20.17704453 41.50941656 -18.71350438 41.56676367 -17.25 41.625 C-16.52039063 41.63917969 -15.79078125 41.65335937 -15.0390625 41.66796875 C-11.68116429 41.82060049 -9.3555302 42.14834949 -6.5 43.96875 C-4.42189365 47.30237893 -4.60578323 49.73114721 -4.75 53.625 C-4.78609375 54.88828125 -4.8221875 56.1515625 -4.859375 57.453125 C-4.92898437 58.89945312 -4.92898437 58.89945312 -5 60.375 C-6.95216435 58.42283565 -7.84826645 56.84300047 -9 54.375 C-9.99 57.015 -10.98 59.655 -12 62.375 C-12.33 62.375 -12.66 62.375 -13 62.375 C-13.33 58.745 -13.66 55.115 -14 51.375 C-14.94101563 51.47039062 -15.88203125 51.56578125 -16.8515625 51.6640625 C-18.09679687 51.77492188 -19.34203125 51.88578125 -20.625 52 C-21.85476562 52.11601562 -23.08453125 52.23203125 -24.3515625 52.3515625 C-28.15709204 52.37600916 -30.59943748 52.08026742 -34 50.375 C-36.7186172 46.21433367 -36.40226915 41.19771207 -36.4375 36.375 C-36.48680664 35.18390625 -36.48680664 35.18390625 -36.53710938 33.96875 C-36.57490288 29.8458221 -36.3146031 27.8518012 -33.9921875 24.33203125 C-30.0402275 21.74726368 -27.2896442 21.79517259 -22.6875 22.0625 C-21.94693359 22.08505859 -21.20636719 22.10761719 -20.44335938 22.13085938 C-18.62802643 22.1894185 -16.81374319 22.27909114 -15 22.375 C-15.09539062 21.75753906 -15.19078125 21.14007813 -15.2890625 20.50390625 C-16.03865472 14.77737034 -16.67789623 8.69813518 -14 3.375 C-9.70558288 -0.29763858 -5.36798886 -0.07842841 0 0 Z " fill="#2AC9FB" transform="translate(181,305.625)"/>
<path d="M0 0 C0.99 1.32 1.98 2.64 3 4 C4.2065625 3.7215625 4.2065625 3.7215625 5.4375 3.4375 C6.7059375 3.2209375 6.7059375 3.2209375 8 3 C12.39672975 7.39672975 10.18441946 22.2332229 10.1875 28 C10.19974609 29.2065625 10.21199219 30.413125 10.22460938 31.65625 C10.23974296 40.93817999 9.21891015 49.26295817 6 58 C7.98 58 9.96 58 12 58 C12 58.33 12 58.66 12 59 C2.77838022 60.1734927 -6.34835321 60.11370415 -15.625 60.0625 C-17.21744651 60.05747395 -18.80989455 60.052913 -20.40234375 60.04882812 C-24.26826779 60.03791237 -28.13411653 60.02070895 -32 60 C-32 59.34 -32 58.68 -32 58 C-31.01 57.34 -30.02 56.68 -29 56 C-28.63371323 54.00577205 -28.29868656 52.00546689 -28 50 C-25.43106162 48.71553081 -23.23423663 48.67022856 -20.375 48.4375 C-19.37210938 48.35371094 -18.36921875 48.26992188 -17.3359375 48.18359375 C-16.56507813 48.12300781 -15.79421875 48.06242187 -15 48 C-18.93828536 45.68336156 -22.69235185 43.56641751 -27 42 C-24 37.5 -24 37.5 -21 33 C-16.76175918 33.56920113 -13.99097375 35.03237614 -10.4375 37.375 C-9.04337891 38.28378906 -9.04337891 38.28378906 -7.62109375 39.2109375 C-5.36354213 40.75185947 -3.17956164 42.35221547 -1 44 C-1.00785522 42.05395874 -1.00785522 42.05395874 -1.01586914 40.06860352 C-1.03391469 35.27352585 -1.04543037 30.4784512 -1.05493164 25.68334961 C-1.05997288 23.60456844 -1.06680574 21.52579084 -1.07543945 19.44702148 C-1.08751422 16.46597414 -1.09323024 13.48497351 -1.09765625 10.50390625 C-1.10539818 9.10078941 -1.10539818 9.10078941 -1.11329651 7.66932678 C-1.11340981 6.37810158 -1.11340981 6.37810158 -1.11352539 5.06079102 C-1.115746 4.29912125 -1.11796661 3.53745148 -1.12025452 2.75270081 C-1 1 -1 1 0 0 Z " fill="#8A8DFD" transform="translate(251,228)"/>
<path d="M0 0 C0.66 0 1.32 0 2 0 C2 0.66 2 1.32 2 2 C2.763125 1.835 3.52625 1.67 4.3125 1.5 C7 1 7 1 10 1 C11.26464693 4.88097018 11.13328957 8.76462955 11.11352539 12.79785156 C11.11367142 13.57872131 11.11381744 14.35959106 11.1139679 15.16412354 C11.11327242 17.73965249 11.10549712 20.31510871 11.09765625 22.890625 C11.09579077 24.67852743 11.09436748 26.46643037 11.09336853 28.2543335 C11.08955357 32.95610978 11.07973198 37.65785508 11.06866455 42.35961914 C11.05842849 47.15901266 11.0538662 51.9584112 11.04882812 56.7578125 C11.03810881 66.1718886 11.02104463 75.58594172 11 85 C10.67 85 10.34 85 10 85 C9.67 79.06 9.34 73.12 9 67 C4.545 67.99 4.545 67.99 0 69 C0 46.23 0 23.46 0 0 Z " fill="#29CBFC" transform="translate(378,115)"/>
<path d="M0 0 C0.66 0 1.32 0 2 0 C2.33 0.99 2.66 1.98 3 3 C4.3153341 3.70151152 5.65117592 4.36525925 7 5 C8.75 6.625 8.75 6.625 10 8 C10.66 7.67 11.32 7.34 12 7 C12.32871094 7.94359375 12.32871094 7.94359375 12.6640625 8.90625 C16.44669109 19.11627189 20.57273516 25.28401094 30.6953125 29.94140625 C37.73711076 32.19711231 44.86789205 31.58929109 52 30 C53.05404945 33.98196457 52.84098656 36.98195309 52 41 C42.07519508 44.30826831 33.95581876 42.72163317 24 40 C23.34 39.67 22.68 39.34 22 39 C22 38.34 22 37.68 22 37 C21.319375 36.79375 20.63875 36.5875 19.9375 36.375 C14.746501 33.94517068 10.83300159 30.95574287 8.5625 25.625 C8.376875 24.75875 8.19125 23.8925 8 23 C7.34 23 6.68 23 6 23 C-0.3720339 7.62669492 -0.3720339 7.62669492 0 0 Z " fill="#2BC8FB" transform="translate(100,405)"/>
<path d="M0 0 C3.875 2.625 3.875 2.625 5 6 C5.08971327 8.22336607 5.11757853 10.44938893 5.11352539 12.67456055 C5.11367142 13.347995 5.11381744 14.02142944 5.1139679 14.715271 C5.11327175 16.93911979 5.10549332 19.16288461 5.09765625 21.38671875 C5.09579101 22.92942764 5.09436761 24.47213711 5.09336853 26.0148468 C5.08955169 30.07383868 5.07972851 34.13279473 5.06866455 38.19177246 C5.05843252 42.33422359 5.05386707 46.4766805 5.04882812 50.61914062 C5.03810551 58.74611018 5.02103907 66.87305063 5 75 C4.67 75 4.34 75 4 75 C3.67 71.7 3.34 68.4 3 65 C2.2575 65.680625 1.515 66.36125 0.75 67.0625 C-0.1575 67.701875 -1.065 68.34125 -2 69 C-4.171875 68.62109375 -4.171875 68.62109375 -6 68 C-5.99777939 67.29034088 -5.99555878 66.58068176 -5.99327087 65.84951782 C-5.97325256 59.16901448 -5.95801798 52.48851947 -5.94818783 45.80799294 C-5.94296421 42.37328438 -5.93587599 38.93860057 -5.92456055 35.50390625 C-5.91163965 31.55729465 -5.90676748 27.61069316 -5.90234375 23.6640625 C-5.89718246 22.42757965 -5.89202118 21.1910968 -5.88670349 19.91714478 C-5.88662796 18.77611298 -5.88655243 17.63508118 -5.88647461 16.45947266 C-5.884254 15.451315 -5.88203339 14.44315735 -5.87974548 13.40444946 C-5.83917452 10.98666939 -5.83917452 10.98666939 -7 9 C-6.01 9 -5.02 9 -4 9 C-3.67 7.68 -3.34 6.36 -3 5 C-1.68 4.67 -0.36 4.34 1 4 C0.67 2.68 0.34 1.36 0 0 Z " fill="#64A4FB" transform="translate(410,99)"/>
<path d="M0 0 C3.32301327 3.42371064 4.36343876 6.24526812 4.4375 11 C4.30278996 17.10685516 1.93190335 20.09536208 -2.125 24.5 C-6.11621855 26.80603739 -9.43313559 26.77075844 -13.9375 26.125 C-19.08748487 24.34231293 -21.90638248 21.6283746 -24.9375 17.125 C-26.41273191 12.1460923 -25.94450056 8.5856642 -23.94921875 3.91796875 C-21.84845026 0.19498521 -18.90662106 -1.39043947 -15.1875 -3.25 C-9.53789999 -4.33646154 -4.8145987 -3.07314811 0 0 Z M-15.9375 8.125 C-16.43760524 11.08269177 -16.43760524 11.08269177 -15.9375 14.125 C-14.36054368 16.2035608 -14.36054368 16.2035608 -11.9375 17.125 C-9.2941226 17.21305146 -9.2941226 17.21305146 -6.9375 16.125 C-5.03974792 13.70967917 -4.9025547 12.50066194 -5.1875 9.4375 C-5.435 8.674375 -5.6825 7.91125 -5.9375 7.125 C-9.59180271 5.29784864 -13.02772516 5.21522516 -15.9375 8.125 Z " fill="#F62BFB" transform="translate(342.9375,354.875)"/>
<path d="M0 0 C3.68828459 1.25674882 6.30146874 3.23386894 8.9375 6.125 C10.53782325 10.45528645 10.65100955 14.44293313 10 19 C7.67076821 23.83763525 4.81852225 26.63619663 0 29 C-5.9240215 29.96211298 -10.88075588 29.07154647 -16 26 C-18.79927979 21.89438964 -19.82636676 17.94854724 -20 13 C-18.37704822 7.7704887 -16.11158306 4.58445703 -12 1 C-8.28011318 -0.85994341 -4.05935619 -0.4375354 0 0 Z M-8.8125 10.1875 C-10.42525784 12.64907776 -10.4334014 14.11065736 -10 17 C-8.91666667 18.91666667 -8.91666667 18.91666667 -7 20 C-4.5 20.58333333 -4.5 20.58333333 -2 20 C0.00965774 18.40383995 0.00965774 18.40383995 1 16 C0.75925978 12.62963689 0.41201979 11.41201979 -2 9 C-4.84602594 8.63512488 -6.3864306 8.59800625 -8.8125 10.1875 Z " fill="#F62BFB" transform="translate(337,304)"/>
<path d="M0 0 C3.32087795 2.55327842 5.26201707 4.85437793 6.23046875 8.921875 C6.77962216 13.86425569 6.20294928 17.21803692 3.5546875 21.34375 C0.75203842 24.68378017 -2.48140971 26.4849699 -6.75390625 27.30078125 C-11.87758978 27.60859945 -15.87057256 26.26806992 -19.76953125 22.921875 C-22.68536007 19.52437534 -24.00097837 16.27234704 -24.14453125 11.796875 C-23.66673647 6.85966229 -23.11186285 4.2642066 -19.58203125 0.734375 C-12.94999672 -3.53960281 -6.75407622 -4.1150663 0 0 Z M-13.70703125 8.609375 C-15.05922567 11.55238639 -14.88021531 12.90716113 -13.76953125 15.921875 C-10.94555059 18.21732341 -10.94555059 18.21732341 -7.70703125 17.859375 C-4.62772403 17.20517632 -4.62772403 17.20517632 -3.20703125 14.671875 C-2.53588974 11.86783497 -2.53588974 11.86783497 -3.76953125 9.109375 C-5.62726021 6.63746786 -5.62726021 6.63746786 -8.76953125 6.359375 C-11.80681057 6.66667898 -11.80681057 6.66667898 -13.70703125 8.609375 Z " fill="#F72BFC" transform="translate(317.76953125,330.078125)"/>
<path d="M0 0 C3.32303376 2.55493594 5.38990955 4.81247447 6.23046875 8.921875 C6.21141387 14.14291297 5.72242764 18.84792296 2.23046875 22.921875 C-2.08784106 26.05476643 -5.41057921 27.61716291 -10.78515625 27.3046875 C-15.73198093 26.3503788 -18.87331251 23.91001362 -22.20703125 20.234375 C-24.22225981 15.96209046 -24.61029173 12.56686852 -23.76953125 7.921875 C-21.95703125 4.546875 -21.95703125 4.546875 -19.76953125 1.921875 C-19.33640625 1.344375 -18.90328125 0.766875 -18.45703125 0.171875 C-12.59267069 -4.17209578 -5.96321071 -3.63321447 0 0 Z M-13.70703125 8.609375 C-15.05922567 11.55238639 -14.88021531 12.90716113 -13.76953125 15.921875 C-11.0105749 18.21825279 -11.0105749 18.21825279 -8.20703125 17.671875 C-5.61952558 17.08379448 -5.61952558 17.08379448 -3.76953125 14.921875 C-3.43619792 11.921875 -3.43619792 11.921875 -3.76953125 8.921875 C-5.65091884 6.63257264 -5.65091884 6.63257264 -8.70703125 6.546875 C-11.80681106 6.63618631 -11.80681106 6.63618631 -13.70703125 8.609375 Z " fill="#F72BFB" transform="translate(365.76953125,330.078125)"/>
<path d="M0 0 C-0.309375 0.886875 -0.61875 1.77375 -0.9375 2.6875 C-2.09265679 5.83934067 -2.09265679 5.83934067 -2.1875 8.625 C-3.50229657 12.46825151 -6.44441047 13.25452877 -10 15 C-9.814375 15.763125 -9.62875 16.52625 -9.4375 17.3125 C-9 20 -9 20 -10 23 C-6.5980513 25.09350689 -3.94727588 25.17942163 0 25 C0 25.66 0 26.32 0 27 C-2.35359502 27.22415191 -4.70648411 27.42959058 -7.0625 27.625 C-8.37347656 27.74101562 -9.68445313 27.85703125 -11.03515625 27.9765625 C-15.12203678 28.0007214 -18.14048591 27.27401436 -22 26 C-23.99488234 25.63729412 -25.9937811 25.29359301 -28 25 C-27.152874 19.63486869 -26.08318169 14.3212615 -25 9 C-24.34 9.66 -23.68 10.32 -23 11 C-22.55011719 10.63648438 -22.10023438 10.27296875 -21.63671875 9.8984375 C-5.96046185 -2.35354685 -5.96046185 -2.35354685 0 0 Z " fill="#D750FE" transform="translate(285,261)"/>
<path d="M0 0 C15.51 0 31.02 0 47 0 C46.34 0.33 45.68 0.66 45 1 C45 3.31 45 5.62 45 8 C41.93155856 9.77293003 39.66898233 10.26312133 36.13964844 10.31884766 C34.69860748 10.34865219 34.69860748 10.34865219 33.22845459 10.37905884 C31.68451019 10.39638565 31.68451019 10.39638565 30.109375 10.4140625 C29.04962463 10.43342865 27.98987427 10.4527948 26.89801025 10.4727478 C23.51542187 10.53249554 20.13279937 10.5789102 16.75 10.625 C14.45571438 10.66318416 12.16144303 10.70223615 9.8671875 10.7421875 C4.24491838 10.83819315 -1.37743677 10.92325483 -7 11 C-6.67 10.34 -6.34 9.68 -6 9 C-0.06 9 5.88 9 12 9 C12.33 7.68 12.66 6.36 13 5 C13.66 5 14.32 5 15 5 C15 4.34 15 3.68 15 3 C14.34 3 13.68 3 13 3 C13 2.34 13 1.68 13 1 C8.71 1 4.42 1 0 1 C0 0.67 0 0.34 0 0 Z " fill="#28CBFC" transform="translate(178,277)"/>
<path d="M0 0 C0 2.64 0 5.28 0 8 C5.61 8.33 11.22 8.66 17 9 C17 13 17 13 15.5 14.75 C15.005 15.1625 14.51 15.575 14 16 C14.66 16.33 15.32 16.66 16 17 C15.01 19.64 14.02 22.28 13 25 C12.01 24.67 11.02 24.34 10 24 C10 22.35 10 20.7 10 19 C8.906875 19.226875 7.81375 19.45375 6.6875 19.6875 C1.1679943 20.35892466 -3.96901349 19.34893258 -9 17 C-11.52779062 12.88063751 -11.1902648 8.75662 -11 4 C-9.35 4 -7.7 4 -6 4 C-6 3.01 -6 2.02 -6 1 C-1.125 0 -1.125 0 0 0 Z " fill="#64A5FB" transform="translate(197,319)"/>
<path d="M0 0 C0.66 0 1.32 0 2 0 C2.33 2.97 2.66 5.94 3 9 C3.94875 8.484375 4.8975 7.96875 5.875 7.4375 C6.90625 6.963125 7.9375 6.48875 9 6 C9.66 6.33 10.32 6.66 11 7 C11 22.84 11 38.68 11 55 C10.67 55 10.34 55 10 55 C9.67 49.06 9.34 43.12 9 37 C6.03 37.66 3.06 38.32 0 39 C0 26.13 0 13.26 0 0 Z " fill="#867CF7" transform="translate(378,145)"/>
<path d="M0 0 C4.34863652 0.56444825 7.17827655 2.15427964 10.8125 4.5625 C11.78832031 5.20316406 12.76414063 5.84382813 13.76953125 6.50390625 C14.50558594 6.99761719 15.24164063 7.49132812 16 8 C14.68 8.33 13.36 8.66 12 9 C12 9.66 12 10.32 12 11 C11.34 11 10.68 11 10 11 C10.061875 11.78375 10.12375 12.5675 10.1875 13.375 C10.0946875 14.674375 10.0946875 14.674375 10 16 C9.01 16.66 8.02 17.32 7 18 C6.42251197 19.96361864 6.42251197 19.96361864 6.3125 22.125 C6.209375 23.40375 6.10625 24.6825 6 26 C2.39006828 27.13480527 -0.9842327 27.10015767 -4.75 27.0625 C-5.92046875 27.05347656 -7.0909375 27.04445313 -8.296875 27.03515625 C-9.18890625 27.02355469 -10.0809375 27.01195312 -11 27 C-11 26.34 -11 25.68 -11 25 C-10.01 24.34 -9.02 23.68 -8 23 C-7.63371323 21.00577205 -7.29868656 19.00546689 -7 17 C-4.43106162 15.71553081 -2.23423663 15.67022856 0.625 15.4375 C1.62789062 15.35371094 2.63078125 15.26992188 3.6640625 15.18359375 C4.43492187 15.12300781 5.20578125 15.06242187 6 15 C2.06171464 12.68336156 -1.69235185 10.56641751 -6 9 C-4 6 -2 3 0 0 Z " fill="#719EFD" transform="translate(230,261)"/>
<path d="M0 0 C0.33 0 0.66 0 1 0 C1 15.18 1 30.36 1 46 C0.67 46 0.34 46 0 46 C-0.33 42.7 -0.66 39.4 -1 36 C-2.11375 37.0209375 -2.11375 37.0209375 -3.25 38.0625 C-4.1575 38.701875 -5.065 39.34125 -6 40 C-8.171875 39.62109375 -8.171875 39.62109375 -10 39 C-10.08770383 35.14597871 -10.14062735 31.29221709 -10.1875 27.4375 C-10.21263672 26.35146484 -10.23777344 25.26542969 -10.26367188 24.14648438 C-10.31948403 18.02575124 -10.21872515 13.3049359 -7 8 C-3.8125 7.0625 -3.8125 7.0625 -1 7 C-0.67 4.69 -0.34 2.38 0 0 Z " fill="#8C79F6" transform="translate(414,128)"/>
<path d="M0 0 C0.99 1.32 1.98 2.64 3 4 C4.2065625 3.7215625 4.2065625 3.7215625 5.4375 3.4375 C6.7059375 3.2209375 6.7059375 3.2209375 8 3 C11.48052958 6.48052958 10.05679827 16.07339487 10.06811523 20.78125 C10.05995382 24.18775519 10.03556498 27.59366497 10 31 C9.34 30.67 8.68 30.34 8 30 C4.33112448 32.51070754 4.33112448 32.51070754 2.1875 36.25 C2.0946875 37.11625 2.0946875 37.11625 2 38 C1.01 37.67 0.02 37.34 -1 37 C-1.0246501 31.89136104 -1.04283607 26.78275641 -1.05493164 21.67407227 C-1.05997204 19.93480832 -1.0668043 18.19554864 -1.07543945 16.45629883 C-1.08751792 13.96174063 -1.09323108 11.46723827 -1.09765625 8.97265625 C-1.10281754 8.19036148 -1.10797882 7.40806671 -1.11329651 6.60206604 C-1.11349226 4.73432886 -1.06199694 2.86670796 -1 1 C-0.67 0.67 -0.34 0.34 0 0 Z " fill="#63A8FC" transform="translate(251,228)"/>
<path d="M0 0 C9.66093304 2.39184926 18.78544994 5.20851566 28 9 C26.14099778 12.13999535 24.24154592 15.11801239 22 18 C18.70236071 17.07972857 15.42531382 16.13786034 12.16796875 15.08203125 C3.8489062 12.40474972 -4.41438981 10.5674973 -13 9 C-13 8.67 -13 8.34 -13 8 C-8.9048826 7.14288241 -6.05560143 7.16808176 -2 8 C0.72502965 7.62277985 0.72502965 7.62277985 3 7 C3 5.35 3 3.7 3 2 C2.01 2 1.02 2 0 2 C0 1.34 0 0.68 0 0 Z " fill="#2EC6FB" transform="translate(203,251)"/>
<path d="M0 0 C3 2 3 2 3.40405273 3.98364258 C3.43604174 6.59431528 3.45773937 9.20162125 3.4375 11.8125 C3.4674707 13.16698242 3.4674707 13.16698242 3.49804688 14.54882812 C3.49490243 18.82841232 3.39455624 21.34073087 1.16015625 25.07421875 C-2.2302281 28.09674946 -5.12185088 28.15807695 -9.5 28.1875 C-10.93859375 28.20876953 -10.93859375 28.20876953 -12.40625 28.23046875 C-15 28 -15 28 -18 26 C-17.21625 25.5875 -16.4325 25.175 -15.625 24.75 C-12.94108344 22.9607223 -12.11901051 21.95011861 -11 19 C-10.67 19 -10.34 19 -10 19 C-9.01 18.67 -8.02 18.34 -7 18 C-7 16.68 -7 15.36 -7 14 C-6.34 14 -5.68 14 -5 14 C-4.29925156 10.846632 -4 8.27275026 -4 5 C-2.93453047 2.86906094 -1.70840281 1.63412443 0 0 Z " fill="#749BFB" transform="translate(215,330)"/>
<path d="M0 0 C0.33 0 0.66 0 1 0 C1 11.88 1 23.76 1 36 C0.34 35.01 -0.32 34.02 -1 33 C-1.66 33 -2.32 33 -3 33 C-3.33 33.66 -3.66 34.32 -4 35 C-4.99 35.495 -4.99 35.495 -6 36 C-6 35.34 -6 34.68 -6 34 C-6.66 34 -7.32 34 -8 34 C-8.67247533 28.00776448 -9.11465663 22.0295473 -9.25 16 C-9.27578125 14.9275 -9.3015625 13.855 -9.328125 12.75 C-9 10 -9 10 -7.671875 8.125 C-6 7 -6 7 -3 7 C-0.64046906 4.64046906 -0.50858587 3.22104383 0 0 Z " fill="#C75FFE" transform="translate(413,159)"/>
<path d="M0 0 C0.33 0 0.66 0 1 0 C1.11618764 3.91641711 1.18724654 7.83239101 1.25 11.75 C1.28351563 12.86117187 1.31703125 13.97234375 1.3515625 15.1171875 C1.36445313 16.18710938 1.37734375 17.25703125 1.390625 18.359375 C1.41157227 19.34389648 1.43251953 20.32841797 1.45410156 21.34277344 C0.87176148 24.75040221 -0.28088991 25.92905701 -3 28 C-3.99 28 -4.98 28 -6 28 C-6.33 28.66 -6.66 29.32 -7 30 C-7.66 29.67 -8.32 29.34 -9 29 C-9.08696177 25.06263877 -9.14037835 21.12552372 -9.1875 17.1875 C-9.21263672 16.06794922 -9.23777344 14.94839844 -9.26367188 13.79492188 C-9.27333984 12.72177734 -9.28300781 11.64863281 -9.29296875 10.54296875 C-9.3086792 9.55321045 -9.32438965 8.56345215 -9.34057617 7.54370117 C-9 5 -9 5 -7.64575195 3.19262695 C-5.51362901 1.64754157 -3.57439016 1.40648266 -1 1 C-0.67 0.67 -0.34 0.34 0 0 Z " fill="#DE46FB" transform="translate(387,180)"/>
<path d="M0 0 C3.30083947 -0.18406168 5.39531225 -0.17027423 8.13671875 1.76171875 C10.57364802 5.09843729 10.315307 7.36171104 10.1640625 11.4453125 C10.12796875 12.70859375 10.091875 13.971875 10.0546875 15.2734375 C9.98507813 16.71976562 9.98507813 16.71976562 9.9140625 18.1953125 C7.96189815 16.24314815 7.06579605 14.66331297 5.9140625 12.1953125 C4.9240625 14.8353125 3.9340625 17.4753125 2.9140625 20.1953125 C2.5840625 20.1953125 2.2540625 20.1953125 1.9140625 20.1953125 C1.5840625 16.5653125 1.2540625 12.9353125 0.9140625 9.1953125 C-6.0159375 8.7003125 -6.0159375 8.7003125 -13.0859375 8.1953125 C-13.4159375 6.8753125 -13.7459375 5.5553125 -14.0859375 4.1953125 C-9.46445348 0.97427818 -5.50659773 0.51559904 0 0 Z " fill="#35C7FE" transform="translate(166.0859375,347.8046875)"/>
<path d="M0 0 C2.78637633 4.1795645 1.79562512 6.14668677 1 11 C-5.83658271 13.2788609 -11.88319978 13.77920006 -19 12 C-17.99806563 8.20696275 -17.18975773 5.28463659 -15 2 C-12.40729301 1.45524022 -9.99548055 1.07599851 -7.375 0.8125 C-6.66859375 0.73064453 -5.9621875 0.64878906 -5.234375 0.56445312 C-3.4909317 0.36419275 -1.74559914 0.18050599 0 0 Z " fill="#8887FB" transform="translate(151,435)"/>
<path d="M0 0 C0.33 0 0.66 0 1 0 C1 9.9 1 19.8 1 30 C0.67 30 0.34 30 0 30 C-0.33 26.7 -0.66 23.4 -1 20 C-4.60992379 20.65585189 -4.60992379 20.65585189 -8 22 C-9.32388229 15.56971459 -10.24794402 9.5705166 -10 3 C-9.34 3 -8.68 3 -8 3 C-7.67 2.34 -7.34 1.68 -7 1 C-7 1.66 -7 2.32 -7 3 C-3.20452079 2.03223902 -3.20452079 2.03223902 0 0 Z " fill="#29CDFC" transform="translate(260,212)"/>
<path d="M0 0 C6.03438442 0.51356463 10.5320153 2.39219191 16 5 C15.01 7.97 14.02 10.94 13 14 C11.55625 13.855625 10.1125 13.71125 8.625 13.5625 C7.40683594 13.44068359 7.40683594 13.44068359 6.1640625 13.31640625 C4 13 4 13 2 12 C2 11.34 2 10.68 2 10 C1.2575 9.773125 0.515 9.54625 -0.25 9.3125 C-3.51139591 7.75592468 -4.92894975 5.91481146 -7 3 C-6.34 2.67 -5.68 2.34 -5 2 C-5 2.66 -5 3.32 -5 4 C-1.87802522 2.6910428 -1.87802522 2.6910428 0 0 Z " fill="#45B9FC" transform="translate(120,432)"/>
<path d="M0 0 C4.29 0 8.58 0 13 0 C13.66 2.31 14.32 4.62 15 7 C15.99 5.35 16.98 3.7 18 2 C18.66 2.33 19.32 2.66 20 3 C20.6328125 5.06640625 20.6328125 5.06640625 21.125 7.5625 C21.29257813 8.38878906 21.46015625 9.21507812 21.6328125 10.06640625 C21.75398438 10.70449219 21.87515625 11.34257812 22 12 C24.64 12 27.28 12 30 12 C30 12.33 30 12.66 30 13 C28.329375 13.12375 28.329375 13.12375 26.625 13.25 C22.97386545 13.5859843 22.97386545 13.5859843 21.5625 15.9375 C20.9122942 17.96528312 20.9122942 17.96528312 21 20 C23.31 20.33 25.62 20.66 28 21 C28 21.33 28 21.66 28 22 C17.24896324 22.56364659 17.24896324 22.56364659 13 19 C11.40587716 15.81175432 11.89825265 12.37103338 11.9375 8.875 C11.94201172 8.12089844 11.94652344 7.36679687 11.95117188 6.58984375 C11.96296501 4.72652873 11.98090058 2.86325445 12 1 C8.04 1 4.08 1 0 1 C0 0.67 0 0.34 0 0 Z " fill="#52AAF8" transform="translate(154,357)"/>
<path d="M0 0 C0.66 0 1.32 0 2 0 C2.35368021 7.12600133 1.95671348 12.47059106 -1 19 C0.98 19 2.96 19 5 19 C5 19.33 5 19.66 5 20 C-1.26039609 20.93213141 -6.02197063 21.20927172 -12 19 C-11.57405412 17.55903414 -11.13373367 16.12231288 -10.6875 14.6875 C-10.32205078 13.48673828 -10.32205078 13.48673828 -9.94921875 12.26171875 C-8.94645651 9.87242107 -8.01940718 8.60410493 -6 7 C-5.34 7 -4.68 7 -4 7 C-3.71125 6.21625 -3.4225 5.4325 -3.125 4.625 C-2 2 -2 2 0 0 Z " fill="#A07EFF" transform="translate(258,267)"/>
<path d="M0 0 C0.33 0 0.66 0 1 0 C1 6.6 1 13.2 1 20 C-0.32 20.33 -1.64 20.66 -3 21 C-4.65 21.66 -6.3 22.32 -8 23 C-8.66 17.06 -9.32 11.12 -10 5 C-5.545 4.505 -5.545 4.505 -1 4 C-0.67 2.68 -0.34 1.36 0 0 Z " fill="#63A3FB" transform="translate(388,132)"/>
<path d="M0 0 C0.33 0 0.66 0 1 0 C1.33 2.31 1.66 4.62 2 7 C4.41619823 7.25030977 4.41619823 7.25030977 7 7 C7.66 6.01 8.32 5.02 9 4 C9.0809313 6.60478883 9.14045434 9.20706653 9.1875 11.8125 C9.22520508 12.91948242 9.22520508 12.91948242 9.26367188 14.04882812 C9.33617637 19.38999269 9.33617637 19.38999269 7.92578125 21.94921875 C5.05989621 23.51295724 2.21621687 23.69658331 -1 24 C-1.02887236 20.18751574 -1.04675492 16.3750593 -1.0625 12.5625 C-1.07087891 11.47388672 -1.07925781 10.38527344 -1.08789062 9.26367188 C-1.09111328 8.22919922 -1.09433594 7.19472656 -1.09765625 6.12890625 C-1.10289307 5.17056885 -1.10812988 4.21223145 -1.11352539 3.22485352 C-1 1 -1 1 0 0 Z " fill="#AD73FD" transform="translate(379,160)"/>
<path d="M0 0 C2.69028841 1.56210295 3.83453371 2.52723918 4.875 5.5 C5.05317585 10.48892381 4.04688069 15.13762852 3 20 C0.33333333 20.66666667 -2.33333333 21.33333333 -5 22 C-5.06058594 21.22914062 -5.12117188 20.45828125 -5.18359375 19.6640625 C-5.26738281 18.66117188 -5.35117187 17.65828125 -5.4375 16.625 C-5.51871094 15.62726563 -5.59992188 14.62953125 -5.68359375 13.6015625 C-5.84965626 11.02072387 -5.84965626 11.02072387 -7 9 C-6.01 9 -5.02 9 -4 9 C-3.67 7.68 -3.34 6.36 -3 5 C-1.68 4.67 -0.36 4.34 1 4 C0.67 2.68 0.34 1.36 0 0 Z " fill="#47BBFE" transform="translate(410,99)"/>
<path d="M0 0 C0 2.64 0 5.28 0 8 C6.93 8.495 6.93 8.495 14 9 C14 9.33 14 9.66 14 10 C13.10796875 10.04898437 12.2159375 10.09796875 11.296875 10.1484375 C10.12640625 10.22320312 8.9559375 10.29796875 7.75 10.375 C6.00976562 10.47941406 6.00976562 10.47941406 4.234375 10.5859375 C1.25774828 10.96700324 -0.43702453 11.55391751 -3 13 C-3.66 13 -4.32 13 -5 13 C-4.67 14.32 -4.34 15.64 -4 17 C-4.99 17.33 -5.98 17.66 -7 18 C-9 17 -9 17 -10.125 14.375 C-11.05654649 10.78189212 -11.14783375 7.69584376 -11 4 C-9.35 4 -7.7 4 -6 4 C-6 3.01 -6 2.02 -6 1 C-1.125 0 -1.125 0 0 0 Z " fill="#44B2F6" transform="translate(197,319)"/>
<path d="M0 0 C4.29 0 8.58 0 13 0 C12.01 0.495 12.01 0.495 11 1 C11 3.31 11 5.62 11 8 C7.93843346 9.77669223 5.75963785 10.24050818 2.234375 10.1953125 C1.34492188 10.18886719 0.45546875 10.18242187 -0.4609375 10.17578125 C-1.38132813 10.15902344 -2.30171875 10.14226562 -3.25 10.125 C-4.18585938 10.11597656 -5.12171875 10.10695313 -6.0859375 10.09765625 C-8.39088657 10.07413636 -10.6953116 10.04126853 -13 10 C-13 9.67 -13 9.34 -13 9 C-10.03 9 -7.06 9 -4 9 C-4 8.34 -4 7.68 -4 7 C-3.34 7 -2.68 7 -2 7 C-2 5.35 -2 3.7 -2 2 C-1.34 2 -0.68 2 0 2 C0 1.34 0 0.68 0 0 Z " fill="#41BCFC" transform="translate(212,277)"/>
<path d="M0 0 C0.99 1.32 1.98 2.64 3 4 C4.2065625 3.7215625 4.2065625 3.7215625 5.4375 3.4375 C6.7059375 3.2209375 6.7059375 3.2209375 8 3 C9 4 9 4 9.09765625 6.72265625 C9.08605469 7.82480469 9.07445312 8.92695313 9.0625 10.0625 C9.05347656 11.16722656 9.04445313 12.27195313 9.03515625 13.41015625 C9.02355469 14.26480469 9.01195312 15.11945313 9 16 C7.02 16.66 5.04 17.32 3 18 C3 18.66 3 19.32 3 20 C2.01 20.33 1.02 20.66 0 21 C-0.16939049 18.79187393 -0.33539222 16.58348776 -0.5 14.375 C-0.5928125 13.14523438 -0.685625 11.91546875 -0.78125 10.6484375 C-0.97519559 7.41370216 -1.11669966 4.23841547 -1 1 C-0.67 0.67 -0.34 0.34 0 0 Z " fill="#46B5F9" transform="translate(251,228)"/>
<path d="M0 0 C1.7508323 4.6506483 -0.35211875 7.90517559 -2.1875 12.24609375 C-3.08629187 15.29247966 -2.87536722 16.98545413 -2 20 C-4.97 19.67 -7.94 19.34 -11 19 C-10.152874 13.63486869 -9.08318169 8.3212615 -8 3 C-7.34 3.66 -6.68 4.32 -6 5 C-4.02 3.35 -2.04 1.7 0 0 Z " fill="#C65AFB" transform="translate(268,267)"/>
<path d="M0 0 C-0.309375 0.886875 -0.61875 1.77375 -0.9375 2.6875 C-2.09265679 5.83934067 -2.09265679 5.83934067 -2.1875 8.625 C-3.15125256 11.44212288 -3.89309266 11.85567726 -6.375 13.375 C-10 15 -10 15 -13 14 C-12.52846905 11.57498366 -12.05397926 9.18892739 -11.375 6.8125 C-10.78653641 4.91096507 -10.78653641 4.91096507 -12 3 C-10.75823305 2.29773859 -9.50614401 1.61370891 -8.25 0.9375 C-7.20585937 0.36322266 -7.20585937 0.36322266 -6.140625 -0.22265625 C-3.63859372 -1.1312406 -2.4667645 -0.88336837 0 0 Z " fill="#E144FB" transform="translate(285,261)"/>
<path d="M0 0 C2.31 0.33 4.62 0.66 7 1 C6.01 1.495 6.01 1.495 5 2 C2.27186279 6.65388112 1.87847256 10.6527927 2 16 C-0.97 16 -3.94 16 -7 16 C-6.33161954 8.9151671 -6.33161954 8.9151671 -3 6 C-2.28552357 3.89667109 -2.28552357 3.89667109 -2 2 C-1.34 2 -0.68 2 0 2 C0 1.34 0 0.68 0 0 Z " fill="#8393FE" transform="translate(242,270)"/>
<path d="M0 0 C2 2 2 2 2.1953125 5.2578125 C2.16050781 7.17207031 2.16050781 7.17207031 2.125 9.125 C2.10695312 10.40632813 2.08890625 11.68765625 2.0703125 13.0078125 C2.04710937 13.99523437 2.02390625 14.98265625 2 16 C0.04783565 14.04783565 -0.84826645 12.46800047 -2 10 C-2.99 12.64 -3.98 15.28 -5 18 C-5.33 18 -5.66 18 -6 18 C-6.33634376 16.06302033 -6.66897165 14.12539514 -7 12.1875 C-7.185625 11.10855469 -7.37125 10.02960938 -7.5625 8.91796875 C-8.08331695 5.44430572 -8.11767921 3.35303763 -7 0 C-3.85179059 -1.04940314 -3.00659136 -1.066855 0 0 Z " fill="#40BEFD" transform="translate(174,350)"/>
<path d="M0 0 C4.75481646 0.57634139 7.97048212 2.55068521 12 5 C12 5.33 12 5.66 12 6 C11.05125 6.2475 10.1025 6.495 9.125 6.75 C5.91306809 7.6857077 5.91306809 7.6857077 4.625 10.125 C4.41875 10.74375 4.2125 11.3625 4 12 C4.66 12.33 5.32 12.66 6 13 C1.61110675 12.33501617 -1.9811485 10.81242323 -6 9 C-4 6 -2 3 0 0 Z " fill="#5CA8F9" transform="translate(230,261)"/>
<path d="M0 0 C0.33 0 0.66 0 1 0 C1.05451714 2.04136395 1.09302485 4.08315856 1.125 6.125 C1.14820313 7.26195312 1.17140625 8.39890625 1.1953125 9.5703125 C0.99452269 13.09618165 0.3602631 15.75048259 -1 19 C-3.125 20.875 -3.125 20.875 -5 22 C-7 20 -7 20 -7.1953125 17.3984375 C-7.17210937 16.40070313 -7.14890625 15.40296875 -7.125 14.375 C-7.10695313 13.37210938 -7.08890625 12.36921875 -7.0703125 11.3359375 C-7.04710937 10.56507813 -7.02390625 9.79421875 -7 9 C-5.68 8.67 -4.36 8.34 -3 8 C-3 7.34 -3 6.68 -3 6 C-2.34 6 -1.68 6 -1 6 C-0.67 4.02 -0.34 2.04 0 0 Z " fill="#B66CFF" transform="translate(413,146)"/>
<path d="M0 0 C-0.185625 0.53625 -0.37125 1.0725 -0.5625 1.625 C-1.11419324 4.61990614 -0.60597444 7.03745829 0 10 C-0.639375 10.12375 -1.27875 10.2475 -1.9375 10.375 C-2.618125 10.58125 -3.29875 10.7875 -4 11 C-4.33 11.66 -4.66 12.32 -5 13 C-6.65 13.33 -8.3 13.66 -10 14 C-10 10.37 -10 6.74 -10 3 C-3.375 -1.125 -3.375 -1.125 0 0 Z " fill="#C155F5" transform="translate(162,432)"/>
<path d="M0 0 C0.33 0 0.66 0 1 0 C1.14285714 8.57142857 1.14285714 8.57142857 0 12 C-2.31 12 -4.62 12 -7 12 C-7 15.3 -7 18.6 -7 22 C-7.33 22 -7.66 22 -8 22 C-8.24858198 19.22965863 -8.47452879 16.46060931 -8.6875 13.6875 C-8.76033203 12.90181641 -8.83316406 12.11613281 -8.90820312 11.30664062 C-8.96298828 10.54931641 -9.01777344 9.79199219 -9.07421875 9.01171875 C-9.13182373 8.31522217 -9.18942871 7.61872559 -9.2487793 6.90112305 C-8.91566406 4.35552115 -7.99836767 3.55147656 -6 2 C-3.375 1.375 -3.375 1.375 -1 1 C-0.67 0.67 -0.34 0.34 0 0 Z " fill="#C85CFC" transform="translate(387,180)"/>
<path d="M0 0 C0.66 0.33 1.32 0.66 2 1 C2 4.3 2 7.6 2 11 C0.68 11.33 -0.64 11.66 -2 12 C-2.33 12.99 -2.66 13.98 -3 15 C-4.32 14.67 -5.64 14.34 -7 14 C-8.60080151 9.99799622 -7.29279692 6.95443764 -6 3 C-5.195625 2.87625 -4.39125 2.7525 -3.5625 2.625 C-2.716875 2.41875 -1.87125 2.2125 -1 2 C-0.67 1.34 -0.34 0.68 0 0 Z " fill="#37C4FD" transform="translate(194,309)"/>
<path d="M0 0 C2.78637633 4.1795645 1.79562512 6.14668677 1 11 C-4.24385089 12.7479503 -8.47322267 13.19392201 -14 13 C-12.35 11.68 -10.7 10.36 -9 9 C-8.34 9.33 -7.68 9.66 -7 10 C-6.814375 8.329375 -6.814375 8.329375 -6.625 6.625 C-6 3 -6 3 -4 1 C-1.875 0.375 -1.875 0.375 0 0 Z " fill="#996EF1" transform="translate(151,435)"/>
<path d="M0 0 C0.33 0.99 0.66 1.98 1 3 C1.66 3.66 2.32 4.32 3 5 C2.625 7.125 2.625 7.125 2 9 C2.99 9.33 3.98 9.66 5 10 C2.11584117 11.44207941 -0.41721528 11.09394887 -3.625 11.0625 C-4.81351563 11.05347656 -6.00203125 11.04445313 -7.2265625 11.03515625 C-8.14179688 11.02355469 -9.05703125 11.01195312 -10 11 C-10 10.34 -10 9.68 -10 9 C-9.01 8.34 -8.02 7.68 -7 7 C-6.63371323 5.00577205 -6.29868656 3.00546689 -6 1 C-4 0 -4 0 0 0 Z " fill="#61ABFE" transform="translate(229,277)"/>
<path d="M0 0 C1.79244141 0.01740234 1.79244141 0.01740234 3.62109375 0.03515625 C5.41740234 0.04869141 5.41740234 0.04869141 7.25 0.0625 C8.17683594 0.07410156 9.10367188 0.08570313 10.05859375 0.09765625 C10.05859375 0.42765625 10.05859375 0.75765625 10.05859375 1.09765625 C8.80046875 1.15953125 7.54234375 1.22140625 6.24609375 1.28515625 C4.05521398 1.48285913 4.05521398 1.48285913 2.05859375 2.09765625 C-0.00594627 4.50508726 -0.00594627 4.50508726 -0.94140625 7.09765625 C1.36859375 7.09765625 3.67859375 7.09765625 6.05859375 7.09765625 C5.72859375 7.75765625 5.39859375 8.41765625 5.05859375 9.09765625 C-0.35477507 10.39686477 -3.83287911 9.8700024 -8.94140625 8.09765625 C-8.94140625 6.44765625 -8.94140625 4.79765625 -8.94140625 3.09765625 C-8.13703125 2.78828125 -7.33265625 2.47890625 -6.50390625 2.16015625 C-1.40675951 0.04670516 -1.40675951 0.04670516 0 0 Z " fill="#5CA1F5" transform="translate(200.94140625,328.90234375)"/>
<path d="M0 0 C0.33 0 0.66 0 1 0 C1 4.29 1 8.58 1 13 C-5.15234375 13.87890625 -5.15234375 13.87890625 -7 14 C-8 13 -8 13 -8.09765625 10.93359375 C-8.08605469 10.10988281 -8.07445312 9.28617188 -8.0625 8.4375 C-8.05347656 7.61121094 -8.04445313 6.78492188 -8.03515625 5.93359375 C-8.02355469 5.29550781 -8.01195312 4.65742188 -8 4 C-6.865625 3.71125 -5.73125 3.4225 -4.5625 3.125 C-3.386875 2.75375 -2.21125 2.3825 -1 2 C-0.67 1.34 -0.34 0.68 0 0 Z " fill="#46BAFD" transform="translate(387,124)"/>
<path d="M0 0 C2.125 0.375 2.125 0.375 4 1 C4 3.66666667 4 6.33333333 4 9 C7.1964086 10.06546953 9.65747276 10.07427838 13 10 C13 10.66 13 11.32 13 12 C10.58388629 12.24942467 8.16940879 12.47507501 5.75 12.6875 C4.72712891 12.79674805 4.72712891 12.79674805 3.68359375 12.90820312 C0.36937067 13.18170697 -1.58683235 13.24621154 -4.484375 11.51953125 C-4.98453125 11.01808594 -5.4846875 10.51664062 -6 10 C-5.01 10 -4.02 10 -3 10 C-2.87625 8.72125 -2.7525 7.4425 -2.625 6.125 C-2.25 2.25 -2.25 2.25 0 0 Z " fill="#CB44F1" transform="translate(272,276)"/>
<path d="M0 0 C0.33 0 0.66 0 1 0 C1 7.26 1 14.52 1 22 C0.34 21.01 -0.32 20.02 -1 19 C-1.66 19 -2.32 19 -3 19 C-3.33 19.66 -3.66 20.32 -4 21 C-4.66 21.33 -5.32 21.66 -6 22 C-6 21.34 -6 20.68 -6 20 C-6.66 20 -7.32 20 -8 20 C-7.505 15.545 -7.505 15.545 -7 11 C-5.35 11.33 -3.7 11.66 -2 12 C-1.07719042 9.23157127 -0.91629327 7.71056559 -1 4.875 C-1 1 -1 1 0 0 Z " fill="#E246FD" transform="translate(413,173)"/>
<path d="M0 0 C0 3.96 0 7.92 0 12 C-0.928125 12.12375 -1.85625 12.2475 -2.8125 12.375 C-6.13925235 12.81533082 -6.13925235 12.81533082 -9 15 C-9.04556751 11.22440602 -8.92458378 7.67191845 -8 4 C-5.88941021 1.84792442 -3.16880338 0 0 0 Z " fill="#789AFE" transform="translate(414,124)"/>
<path d="M0 0 C-1.83827868 3.15133488 -3.75972706 6.11964908 -6 9 C-8.97 8.505 -8.97 8.505 -12 8 C-12.125 2.25 -12.125 2.25 -11 0 C-7.30428099 -1.56357343 -3.84441631 -0.66537975 0 0 Z " fill="#43B9FB" transform="translate(231,260)"/>
<path d="M0 0 C2.64 0.99 5.28 1.98 8 3 C7.01 5.97 6.02 8.94 5 12 C3.55625 11.855625 2.1125 11.71125 0.625 11.5625 C-0.59316406 11.44068359 -0.59316406 11.44068359 -1.8359375 11.31640625 C-4 11 -4 11 -6 10 C-6 9.34 -6 8.68 -6 8 C-6.66 7.67 -7.32 7.34 -8 7 C-5.69 7.33 -3.38 7.66 -1 8 C-1 7.34 -1 6.68 -1 6 C-0.34 6 0.32 6 1 6 C0.67 4.02 0.34 2.04 0 0 Z " fill="#5C9FF3" transform="translate(128,434)"/>
<path d="M0 0 C2.3125 2.0625 2.3125 2.0625 4 4 C3.38125 4.28875 2.7625 4.5775 2.125 4.875 C-0.13325765 5.93720042 -0.13325765 5.93720042 -2 8 C-4.9425963 7.69347955 -7.34542308 7.32728846 -10 6 C-10.625 3.9375 -10.625 3.9375 -11 2 C-10.34 2 -9.68 2 -9 2 C-8.67 1.34 -8.34 0.68 -8 0 C-4.61786861 -1.12737713 -3.35228621 -1.06292002 0 0 Z " fill="#36C2FB" transform="translate(120,428)"/>
<path d="M0 0 C1.9375 1.125 1.9375 1.125 4 3 C4.75 6.1875 4.75 6.1875 5 9 C2 11 2 11 0 11 C-1.62514468 12.45833358 -1.62514468 12.45833358 -3 14 C-3.99 13.67 -4.98 13.34 -6 13 C-6.6875 10.9375 -6.6875 10.9375 -7 9 C-6.01 9 -5.02 9 -4 9 C-3.67 7.68 -3.34 6.36 -3 5 C-1.68 4.67 -0.36 4.34 1 4 C0.67 2.68 0.34 1.36 0 0 Z " fill="#37BBF7" transform="translate(410,99)"/>
<path d="M0 0 C0.33 0 0.66 0 1 0 C1 5.61 1 11.22 1 17 C0.34 16.67 -0.32 16.34 -1 16 C-4.66887552 18.51070754 -4.66887552 18.51070754 -6.8125 22.25 C-6.9053125 23.11625 -6.9053125 23.11625 -7 24 C-7.99 23.67 -8.98 23.34 -10 23 C-8.48421876 17.23263724 -7.36750745 13.24875451 -2 10 C-1.67 10 -1.34 10 -1 10 C-0.67 6.7 -0.34 3.4 0 0 Z " fill="#729DFB" transform="translate(260,242)"/>
<path d="M0 0 C0.33 0 0.66 0 1 0 C1 9.9 1 19.8 1 30 C0.67 30 0.34 30 0 30 C-0.33 26.7 -0.66 23.4 -1 20 C-2.65 20.33 -4.3 20.66 -6 21 C-6.33 19.35 -6.66 17.7 -7 16 C-6.34 16 -5.68 16 -5 16 C-4.67 14.68 -4.34 13.36 -4 12 C-3.01 12 -2.02 12 -1 12 C-0.67 8.04 -0.34 4.08 0 0 Z " fill="#38C5FC" transform="translate(260,212)"/>
<path d="M0 0 C0 2.97 0 5.94 0 9 C-0.99 9 -1.98 9 -3 9 C-4.68236471 9.62599617 -6.3523962 10.28752268 -8 11 C-8 7.7 -8 4.4 -8 1 C-4 0 -4 0 0 0 Z " fill="#789AFE" transform="translate(388,144)"/>
<path d="M0 0 C2.97 0 5.94 0 9 0 C8.01 0.495 8.01 0.495 7 1 C7.020625 2.134375 7.04125 3.26875 7.0625 4.4375 C7 8 7 8 6 9 C3.66702567 9.04092937 1.33294775 9.04241723 -1 9 C-0.67 6.03 -0.34 3.06 0 0 Z " fill="#55B1FE" transform="translate(216,277)"/>
<path d="M0 0 C0.33 0 0.66 0 1 0 C1.05447047 1.41623216 1.09300508 2.83308191 1.125 4.25 C1.14820313 5.03890625 1.17140625 5.8278125 1.1953125 6.640625 C0.9828378 9.20731941 0.28654105 10.7916067 -1 13 C-2.98 13 -4.96 13 -7 13 C-7 10.03 -7 7.06 -7 4 C-4.69 4.33 -2.38 4.66 0 5 C0 3.35 0 1.7 0 0 Z " fill="#9388FD" transform="translate(387,155)"/>
<path d="M0 0 C-0.66 2.31 -1.32 4.62 -2 7 C-2.66 7 -3.32 7 -4 7 C-4 7.66 -4 8.32 -4 9 C-6.31 9 -8.62 9 -11 9 C-11.33 8.34 -11.66 7.68 -12 7 C-11.34 7 -10.68 7 -10 7 C-9.67 5.35 -9.34 3.7 -9 2 C-3.375 0 -3.375 0 0 0 Z " fill="#35C5FE" transform="translate(212,277)"/>
<path d="M0 0 C0.33 0 0.66 0 1 0 C1 4.62 1 9.24 1 14 C0.34 12.68 -0.32 11.36 -1 10 C-1.61875 10.350625 -2.2375 10.70125 -2.875 11.0625 C-3.57625 11.371875 -4.2775 11.68125 -5 12 C-5.66 11.67 -6.32 11.34 -7 11 C-7 8.69 -7 6.38 -7 4 C-2.25 2.875 -2.25 2.875 0 4 C0 2.68 0 1.36 0 0 Z " fill="#D751FE" transform="translate(387,188)"/>
<path d="M0 0 C0.66 0 1.32 0 2 0 C2.33 3.63 2.66 7.26 3 11 C5.21081851 11.10540926 5.21081851 11.10540926 8 10 C8.625 12.375 8.625 12.375 9 15 C8.34 15.66 7.68 16.32 7 17 C5.68 17 4.36 17 3 17 C2.67 17.66 2.34 18.32 2 19 C1.34 18.67 0.68 18.34 0 18 C0 12.06 0 6.12 0 0 Z " fill="#CA4DF4" transform="translate(404,169)"/>
<path d="M0 0 C0.66 0.33 1.32 0.66 2 1 C1.40075776 5.19469571 0.42500059 9.00999834 -1 13 C-2.65 13 -4.3 13 -6 13 C-5.58221009 7.2902045 -3.42453429 4.39042858 0 0 Z " fill="#AE73FE" transform="translate(258,273)"/>
<path d="M0 0 C0.66 0.66 1.32 1.32 2 2 C2.66 1.67 3.32 1.34 4 1 C3.35812082 6.13503344 2.31727753 10.9943454 1 16 C-0.32 16 -1.64 16 -3 16 C-2.152874 10.63486869 -1.08318169 5.3212615 0 0 Z " fill="#BB67FD" transform="translate(260,270)"/>
<path d="M0 0 C0.33 0 0.66 0 1 0 C1.33 2.31 1.66 4.62 2 7 C3.98 7 5.96 7 8 7 C7.67 7.99 7.34 8.98 7 10 C5.02 10.33 3.04 10.66 1 11 C1 15.29 1 19.58 1 24 C0.34 23.67 -0.32 23.34 -1 23 C-1.02887512 19.35418313 -1.04675585 15.70839537 -1.0625 12.0625 C-1.07087891 11.02158203 -1.07925781 9.98066406 -1.08789062 8.90820312 C-1.09272461 7.42416992 -1.09272461 7.42416992 -1.09765625 5.91015625 C-1.10289307 4.99371338 -1.10812988 4.07727051 -1.11352539 3.13305664 C-1 1 -1 1 0 0 Z " fill="#A16CF2" transform="translate(379,160)"/>
<path d="M0 0 C0.33 1.65 0.66 3.3 1 5 C0.01 4.67 -0.98 4.34 -2 4 C-2 4.66 -2 5.32 -2 6 C-3.32 6.33 -4.64 6.66 -6 7 C-6 11.29 -6 15.58 -6 20 C-6.66 19.67 -7.32 19.34 -8 19 C-8.21761474 12.99141528 -8.33743912 7.6098539 -6 2 C-3.80200446 0.4201907 -2.6847018 0 0 0 Z " fill="#9C73F5" transform="translate(412,148)"/>
<path d="M0 0 C0.69287109 0.02255859 1.38574219 0.04511719 2.09960938 0.06835938 C3.79651573 0.12687339 5.49229861 0.2165452 7.1875 0.3125 C7.1875 0.6425 7.1875 0.9725 7.1875 1.3125 C6.29546875 1.36148437 5.4034375 1.41046875 4.484375 1.4609375 C3.31390625 1.53570312 2.1434375 1.61046875 0.9375 1.6875 C-0.80273438 1.79191406 -0.80273438 1.79191406 -2.578125 1.8984375 C-6.06573517 2.16410399 -6.06573517 2.16410399 -9.8125 4.3125 C-9.8125 7.9425 -9.8125 11.5725 -9.8125 15.3125 C-10.4725 15.3125 -11.1325 15.3125 -11.8125 15.3125 C-12.11768762 13.7563453 -12.38025915 12.19179892 -12.625 10.625 C-12.77582031 9.75488281 -12.92664063 8.88476562 -13.08203125 7.98828125 C-12.8125 5.3125 -12.8125 5.3125 -10.8125 2.5 C-7.11993789 -0.19249321 -4.38184899 -0.2725552 0 0 Z " fill="#1ED2FA" transform="translate(157.8125,327.6875)"/>
<path d="M0 0 C0.99 0.33 1.98 0.66 3 1 C2.814375 1.53625 2.62875 2.0725 2.4375 2.625 C1.88580676 5.61990614 2.39402556 8.03745829 3 11 C-0.75 12.125 -0.75 12.125 -3 11 C-3.08096803 9.54257537 -3.13917774 8.08387193 -3.1875 6.625 C-3.22230469 5.81289063 -3.25710937 5.00078125 -3.29296875 4.1640625 C-3.19628906 3.44992187 -3.09960938 2.73578125 -3 2 C-2.01 1.34 -1.02 0.68 0 0 Z " fill="#DD46FB" transform="translate(159,431)"/>
<path d="M0 0 C0 1.98 0 3.96 0 6 C-0.66 6 -1.32 6 -2 6 C-2.33 6.66 -2.66 7.32 -3 8 C-4.9375 8.6875 -4.9375 8.6875 -7 9 C-7.66 8.67 -8.32 8.34 -9 8 C-7.75 4.5625 -7.75 4.5625 -6 1 C-3.76419496 -0.01627502 -2.42194077 0 0 0 Z " fill="#888CFD" transform="translate(413,135)"/>
<path d="M0 0 C0.99 0.33 1.98 0.66 3 1 C3 3.97 3 6.94 3 10 C0.69 10 -1.62 10 -4 10 C-2.99806563 6.20696275 -2.18975773 3.28463659 0 0 Z " fill="#7B95FD" transform="translate(136,437)"/>
<path d="M0 0 C0.66 0.33 1.32 0.66 2 1 C2 3.31 2 5.62 2 8 C1.67 7.01 1.34 6.02 1 5 C-2.42578949 8.17539556 -2.42578949 8.17539556 -5 12 C-5.66 12 -6.32 12 -7 12 C-7 9.69 -7 7.38 -7 5 C-6.030625 4.54625 -5.06125 4.0925 -4.0625 3.625 C-0.92920418 2.34213779 -0.92920418 2.34213779 0 0 Z " fill="#928AFD" transform="translate(259,262)"/>
<path d="M0 0 C0.66 0.33 1.32 0.66 2 1 C1.67 2.32 1.34 3.64 1 5 C1.99 5.33 2.98 5.66 4 6 C1.11584117 7.44207941 -1.41721528 7.09394887 -4.625 7.0625 C-5.81351563 7.05347656 -7.00203125 7.04445313 -8.2265625 7.03515625 C-9.14179688 7.02355469 -10.05703125 7.01195312 -11 7 C-11 6.34 -11 5.68 -11 5 C-9.39125 4.87625 -9.39125 4.87625 -7.75 4.75 C-3.7261549 3.94523098 -2.51830747 3.12270126 0 0 Z " fill="#608DEA" transform="translate(230,281)"/>
<path d="M0 0 C0.66 0.33 1.32 0.66 2 1 C2 2.65 2 4.3 2 6 C0.02 6.66 -1.96 7.32 -4 8 C-4 8.66 -4 9.32 -4 10 C-4.99 10.33 -5.98 10.66 -7 11 C-7 8.69 -7 6.38 -7 4 C-6.01 4.495 -6.01 4.495 -5 5 C-4.67 4.34 -4.34 3.68 -4 3 C-3.34 3 -2.68 3 -2 3 C-2 2.34 -2 1.68 -2 1 C-1.34 0.67 -0.68 0.34 0 0 Z " fill="#54B1FE" transform="translate(258,238)"/>
<path d="M0 0 C0.66 0 1.32 0 2 0 C2.05790353 3.29159316 2.09356261 6.58305603 2.125 9.875 C2.15013672 11.28072266 2.15013672 11.28072266 2.17578125 12.71484375 C2.18222656 13.61074219 2.18867188 14.50664062 2.1953125 15.4296875 C2.20578613 16.25710449 2.21625977 17.08452148 2.22705078 17.93701172 C2 20 2 20 0 22 C-0.19696449 18.89635771 -0.38093262 15.79207808 -0.5625 12.6875 C-0.61857422 11.80642578 -0.67464844 10.92535156 -0.73242188 10.01757812 C-0.78076172 9.17001953 -0.82910156 8.32246094 -0.87890625 7.44921875 C-0.9260376 6.66893311 -0.97316895 5.88864746 -1.02172852 5.0847168 C-1 3 -1 3 0 0 Z " fill="#63A1F8" transform="translate(216,332)"/>
<path d="M0 0 C1.67542976 0.28604898 3.34385343 0.61781233 5 1 C4.67 3.31 4.34 5.62 4 8 C2.35 7.67 0.7 7.34 -1 7 C-1.04254356 5.00045254 -1.04080783 2.99958364 -1 1 C-0.67 0.67 -0.34 0.34 0 0 Z " fill="#B170FE" transform="translate(148,437)"/>
<path d="M0 0 C0.33 0 0.66 0 1 0 C1 4.29 1 8.58 1 13 C0.67 12.01 0.34 11.02 0 10 C-1.98 10.99 -3.96 11.98 -6 13 C-6.33 11.68 -6.66 10.36 -7 9 C-5.68 8.67 -4.36 8.34 -3 8 C-3 7.34 -3 6.68 -3 6 C-2.34 6 -1.68 6 -1 6 C-0.67 4.02 -0.34 2.04 0 0 Z " fill="#AA76FD" transform="translate(413,146)"/>
<path d="M0 0 C1.32 0 2.64 0 4 0 C3.01 2.97 2.02 5.94 1 9 C-0.32 8.67 -1.64 8.34 -3 8 C-3.33 7.01 -3.66 6.02 -4 5 C-3.34 5 -2.68 5 -2 5 C-1.34 3.35 -0.68 1.7 0 0 Z " fill="#6AA4FE" transform="translate(132,437)"/>
<path d="M0 0 C0.76570312 0.24556641 0.76570312 0.24556641 1.546875 0.49609375 C4.81291828 1.16698481 7.9186747 1.0933456 11.25 1.0625 C12.51328125 1.05347656 13.7765625 1.04445313 15.078125 1.03515625 C16.52445313 1.01775391 16.52445313 1.01775391 18 1 C18 1.33 18 1.66 18 2 C17.10796875 2.04898437 16.2159375 2.09796875 15.296875 2.1484375 C14.12640625 2.22320312 12.9559375 2.29796875 11.75 2.375 C10.00976562 2.47941406 10.00976562 2.47941406 8.234375 2.5859375 C5.24097347 2.96915074 3.59195095 3.58933643 1 5 C0.01 5 -0.98 5 -2 5 C-1.34 3.35 -0.68 1.7 0 0 Z " fill="#40BDFD" transform="translate(193,327)"/>
<path d="M0 0 C0.66 0.66 1.32 1.32 2 2 C1.625 4.625 1.625 4.625 1 7 C-1.31 7.33 -3.62 7.66 -6 8 C-6 6.35 -6 4.7 -6 3 C-4.02 2.67 -2.04 2.34 0 2 C0 1.34 0 0.68 0 0 Z " fill="#BB68FE" transform="translate(386,175)"/>
<path d="M0 0 C0 1.98 0 3.96 0 6 C-2.64 6.33 -5.28 6.66 -8 7 C-7.67 5.02 -7.34 3.04 -7 1 C-1.125 0 -1.125 0 0 0 Z " fill="#56B1FF" transform="translate(388,131)"/>
<path d="M0 0 C0.99 1.485 0.99 1.485 2 3 C3.65 2.01 5.3 1.02 7 0 C7.33 1.98 7.66 3.96 8 6 C5.33333333 6.66666667 2.66666667 7.33333333 0 8 C0 5.36 0 2.72 0 0 Z " fill="#55B1FE" transform="translate(405,113)"/>
<path d="M0 0 C0.66 0.66 1.32 1.32 2 2 C1.34 3.32 0.68 4.64 0 6 C4.62 6 9.24 6 14 6 C14 6.33 14 6.66 14 7 C7.73960391 7.93213141 2.97802937 8.20927172 -3 6 C-1.125 1.125 -1.125 1.125 0 0 Z " fill="#9B76F6" transform="translate(249,280)"/>
<path d="M0 0 C1.98 0 3.96 0 6 0 C6.33 1.65 6.66 3.3 7 5 C6.34 4.67 5.68 4.34 5 4 C2.99199544 4.28112064 0.98985949 4.61067967 -1 5 C-1.33 4.01 -1.66 3.02 -2 2 C-1.34 2 -0.68 2 0 2 C0 1.34 0 0.68 0 0 Z " fill="#35C2FC" transform="translate(380,123)"/>
<path d="M0 0 C2.00720923 0.28674418 4.0085944 0.61866701 6 1 C5.01 1.495 5.01 1.495 4 2 C3.27840576 3.64363134 2.60648579 5.31050386 2 7 C1.01 6.67 0.02 6.34 -1 6 C-1.042721 4.33388095 -1.04063832 2.66617115 -1 1 C-0.67 0.67 -0.34 0.34 0 0 Z " fill="#56B0FF" transform="translate(125,436)"/>
<path d="M0 0 C0.33 0 0.66 0 1 0 C1 1.98 1 3.96 1 6 C-3.75 7 -3.75 7 -6 7 C-6 5.68 -6 4.36 -6 3 C-5.195625 2.87625 -4.39125 2.7525 -3.5625 2.625 C-2.716875 2.41875 -1.87125 2.2125 -1 2 C-0.67 1.34 -0.34 0.68 0 0 Z " fill="#9D82FF" transform="translate(386,161)"/>
<path d="M0 0 C0.99 0.66 1.98 1.32 3 2 C3 2.99 3 3.98 3 5 C2.34 5 1.68 5 1 5 C0.67 6.32 0.34 7.64 0 9 C-1.32 9.33 -2.64 9.66 -4 10 C-3.67 8.35 -3.34 6.7 -3 5 C-1.68 4.67 -0.36 4.34 1 4 C0.67 2.68 0.34 1.36 0 0 Z " fill="#27CCFD" transform="translate(410,99)"/>
<path d="M0 0 C2.31 0 4.62 0 7 0 C6.67 1.32 6.34 2.64 6 4 C5.01 4 4.02 4 3 4 C2.67 4.66 2.34 5.32 2 6 C1.34 5.34 0.68 4.68 0 4 C0 2.68 0 1.36 0 0 Z " fill="#D454FF" transform="translate(406,176)"/>
<path d="M0 0 C0.66 0.33 1.32 0.66 2 1 C2 2.65 2 4.3 2 6 C1.67 5.34 1.34 4.68 1 4 C-1.475 5.485 -1.475 5.485 -4 7 C-4.33 5.68 -4.66 4.36 -5 3 C-2.625 1.4375 -2.625 1.4375 0 0 Z " fill="#9D82FF" transform="translate(411,144)"/>
<path d="M0 0 C0.99 0.33 1.98 0.66 3 1 C2.1875 3.9375 2.1875 3.9375 1 7 C0.01 7.33 -0.98 7.66 -2 8 C-1.125 1.125 -1.125 1.125 0 0 Z " fill="#4CB8FF" transform="translate(217,278)"/>
<path d="M0 0 C0 0.99 0 1.98 0 3 C-3.63 2.34 -7.26 1.68 -11 1 C-11 0.67 -11 0.34 -11 0 C-7.01803543 -1.05404945 -4.01804691 -0.84098656 0 0 Z " fill="#4793E2" transform="translate(201,259)"/>
<path d="M0 0 C1.32 0.33 2.64 0.66 4 1 C2.02 3.97 2.02 3.97 0 7 C-0.66 6.01 -1.32 5.02 -2 4 C-1.34 2.68 -0.68 1.36 0 0 Z " fill="#4EB7FF" transform="translate(226,261)"/>
<path d="M0 0 C0 2.31 0 4.62 0 7 C-0.99 6.34 -1.98 5.68 -3 5 C-3 3.68 -3 2.36 -3 1 C-1 0 -1 0 0 0 Z " fill="#9A83FF" transform="translate(145,439)"/>
<path d="M0 0 C0.99 0 1.98 0 3 0 C3 1.98 3 3.96 3 6 C2.01 6.33 1.02 6.66 0 7 C0 4.69 0 2.38 0 0 Z " fill="#24C5F4" transform="translate(101,385)"/>
<path d="M0 0 C0.33 0.99 0.66 1.98 1 3 C1.66 3 2.32 3 3 3 C3.66 4.98 4.32 6.96 5 9 C4.34 9 3.68 9 3 9 C3 8.34 3 7.68 3 7 C2.34 7 1.68 7 1 7 C0.67 4.69 0.34 2.38 0 0 Z " fill="#26BEF0" transform="translate(97,277)"/>
</svg>
